/* XPM */
static char *NES___Bomberman___General_Sprites__6_1701749038[] = {
/* columns rows colors chars-per-pixel */
"32 32 135 2 ",
"   c #000001",
".  c #0E2201",
"X  c #2B6700",
"o  c #3A8B00",
"O  c #040101",
"+  c #0F0501",
"@  c #150701",
"#  c #140601",
"$  c #130601",
"%  c #040201",
"&  c #0E0501",
"*  c #301000",
"=  c #411600",
"-  c #401500",
";  c #3F1500",
":  c #030101",
">  c #250C01",
",  c #471700",
"<  c #5D2000",
"1  c #652700",
"2  c #692A00",
"3  c #662700",
"4  c #5E2100",
"5  c #0D0301",
"6  c #020001",
"7  c #0D2201",
"8  c #2A6700",
"9  c #511A00",
"0  c #632600",
"q  c #7E3900",
"w  c #8C4400",
"e  c #7F3A00",
"r  c #120601",
"t  c #300E00",
"y  c #0D0201",
"u  c #0B2101",
"i  c #296700",
"p  c #240C01",
"a  c #471800",
"s  c #5C2000",
"d  c #733300",
"f  c #8F4600",
"g  c #974D00",
"h  c #8E4600",
"j  c #984D00",
"k  c #3E1400",
"l  c #471600",
"z  c #240901",
"x  c #1C2701",
"c  c #2F6800",
"v  c #398B00",
"b  c #461700",
"n  c #511B00",
"m  c #7D3900",
"M  c #8F4700",
"N  c #8D4500",
"B  c #713100",
"V  c #723100",
"C  c #511900",
"Z  c #461500",
"A  c #3E3200",
"S  c #3A6C00",
"D  c #388A00",
"F  c #591E00",
"G  c #581D00",
"H  c #551C00",
"J  c #662900",
"K  c #8A4300",
"L  c #9D5100",
"P  c #9C5000",
"I  c #703000",
"U  c #8B4400",
"Y  c #561B00",
"T  c #581B00",
"R  c #513900",
"E  c #406E00",
"W  c #378A00",
"Q  c #9B4F00",
"!  c #954B00",
"~  c #964C00",
"^  c #8B4300",
"/  c #682A00",
"(  c #451700",
")  c #4F1A00",
"_  c #672900",
"`  c #894200",
"'  c #9A4F00",
"]  c #682900",
"[  c #501800",
"{  c #451400",
"}  c #230B01",
"|  c #441600",
" . c #9D5000",
".. c #9E5100",
"X. c #441500",
"o. c #230901",
"O. c #2F6900",
"+. c #9B5000",
"@. c #904A00",
"#. c #7C3F00",
"$. c #7D4000",
"%. c #924B00",
"&. c #110501",
"*. c #3E1300",
"=. c #110301",
"-. c #7C4000",
";. c #3F2001",
":. c #402101",
">. c #7E4100",
",. c #8E4500",
"<. c #6A2B00",
"1. c #100501",
"2. c #3F1300",
"3. c #994D00",
"4. c #914700",
"5. c #643000",
"6. c #1B0D01",
"7. c #1C0E01",
"8. c #663200",
"9. c #813B00",
"0. c #220B01",
"q. c #120301",
"w. c #0C2101",
"e. c #904700",
"r. c #763400",
"t. c #4A1D00",
"y. c #140701",
"u. c #150801",
"i. c #4C1E00",
"p. c #5C2100",
"a. c #501B00",
"s. c #3C1300",
"d. c #561C00",
"f. c #571D00",
"g. c white",
/* pixels */
"                                                          . X o ",
"      O + @ # $ $ $ $ # @ + % % + @ # $ $ $ $ # @ + O     . X o ",
"      & * = - ; ; ; ; - = * & & * = - ; ; ; ; - = * &     . X o ",
"  : & > , < 1 2 2 2 2 3 4 = $ $ = 4 3 2 2 2 2 1 < , > 5 6 7 8 o ",
"  & * , 9 0 q w w w w e 3 - r r - 3 e w w w w q 0 9 , t y u i o ",
"$ p a s 0 d f g h h j w 2 k r r k 2 w j h h g f d 0 s l z x c v ",
"= b n 0 m M j N B V h w 2 k r r k 2 w h V B N j M m 0 C Z A S D ",
"F G H J K L P w I B N U 2 k r r k 2 U N B I w P L K J Y T R E W ",
"F G H J K P Q ! w N ~ ^ / k r r k / ^ ~ N w ! Q P K J Y T R E W ",
"= ( ) _ ` Q ' ' P L P K ] k r r k ] K P L P ' ' Q ` _ [ { A S D ",
"$ } | ] K Q ' '  ...P K ] k r r k ] K P .. .' ' Q K ] X.o.x O.v ",
"  r k / K +.P @.#.$.%.w 2 k &.&.k 2 w %.$.#.@.P +.K / *.=.u i o ",
"  r k ] K  ...-.;.:.>.,.<.k 1.1.k <.,.>.:.;.-... .K ] 2.=.u i o ",
"  $ ; / K 3.4.5.6.7.8.9.3 | 0.0.| 3 9.8.7.6.5.4.3.K / 2.q.w.8 o ",
"  $ ; 2 ^ e.r.t.y.u.i.1 p.a.b b a.p.1 i.u.y.t.r.e.^ 2 2.q.w.8 o ",
"  $ ; 2 w ^ _ s.&.r k d.f.f.F F f.f.d.k r &.s._ ^ w 2 2.q.w.8 o ",
"  $ ; 2 w ^ _ s.&.r k d.f.f.F F f.f.d.k r &.s._ ^ w 2 2.q.w.8 o ",
"  $ ; 2 ^ e.r.t.y.u.i.1 p.a.b b a.p.1 i.u.y.t.r.e.^ 2 2.q.w.8 o ",
"  $ ; / K 3.4.5.6.7.8.9.3 | 0.0.| 3 9.8.7.6.5.4.3.K / 2.q.w.8 o ",
"  r k ] K  ...-.;.:.>.,.<.k 1.1.k <.,.>.:.;.-... .K ] 2.=.u i o ",
"  r k / K +.P @.#.$.%.w 2 k &.&.k 2 w %.$.#.@.P +.K / *.=.u i o ",
"$ } | ] K Q ' '  ...P K ] k r r k ] K P .. .' ' Q K ] X.o.x O.v ",
"= ( ) _ ` Q ' ' P L P K ] k r r k ] K P L P ' ' Q ` _ [ { A S D ",
"F G H J K P Q ! w N ~ ^ / k r r k / ^ ~ N w ! Q P K J Y T R E W ",
"F G H J K L P w I B N U 2 k r r k 2 U N B I w P L K J Y T R E W ",
"= b n 0 m M j N B V h w 2 k r r k 2 w h V B N j M m 0 C Z A S D ",
"$ p a s 0 d f g h h j w 2 k r r k 2 w j h h g f d 0 s l z x c v ",
"  & * , 9 0 q w w w w e 3 - r r - 3 e w w w w q 0 9 , t y u i o ",
"  : & > , < 1 2 2 2 2 3 4 = $ $ = 4 3 2 2 2 2 1 < , > 5 6 7 8 o ",
"      & * = - ; ; ; ; - = * & & * = - ; ; ; ; - = * &     . X o ",
"      O + @ # $ $ $ $ # @ + % % + @ # $ $ $ $ # @ + O     . X o ",
"                                                          . X o "
};
