/* XPM */
static char *_945e434d4454c03b48a06a60f9d67e6ElLDAZfdFxiMouLb[] = {
/* columns rows colors chars-per-pixel */
"32 32 164 2 ",
"   c #81BA44",
".  c #7FB841",
"X  c #80B842",
"o  c #82BB45",
"O  c #7EB740",
"+  c #80B943",
"@  c #84BC46",
"#  c #87C049",
"$  c #83BC45",
"%  c #81BA45",
"&  c #77AF37",
"*  c #6DA52A",
"=  c #79B23A",
"-  c #6BA226",
";  c #8DC54F",
":  c #B2E66D",
">  c #9AD758",
",  c #84BE46",
"<  c #94CC54",
"1  c #90C751",
"2  c #7BB43C",
"3  c #7BB33B",
"4  c #68A023",
"5  c #6BA327",
"6  c #71A92E",
"7  c #77AF36",
"8  c #72A828",
"9  c #96D450",
"0  c #8CC84D",
"q  c #97D555",
"w  c #ACE366",
"e  c #90C64F",
"r  c #6DA529",
"t  c #7BB33C",
"y  c #7EB741",
"u  c #7FB842",
"i  c #689F23",
"p  c #6FA82B",
"a  c #85BE47",
"s  c #8DCA4A",
"d  c #679F1C",
"f  c #6BA328",
"g  c #6EA62B",
"h  c #7AB33B",
"j  c #70A82E",
"k  c #82BB44",
"l  c #86BF48",
"z  c #86BE48",
"x  c #90CD50",
"c  c #B0E76B",
"v  c #9BD15A",
"b  c #84BD46",
"n  c #98D755",
"m  c #7EB735",
"M  c #6FA62B",
"N  c #6FA72C",
"B  c #74AC32",
"V  c #7AB339",
"C  c #639B1C",
"Z  c #7CB43D",
"A  c #679E21",
"S  c #89C44A",
"D  c #A5DC62",
"F  c #9AD05A",
"G  c #80BA44",
"H  c #81B944",
"J  c #83BD46",
"K  c #9BDB58",
"L  c #99D151",
"P  c #7DB43B",
"I  c #87C148",
"U  c #9BDA58",
"Y  c #6EA62A",
"T  c #7DB63F",
"R  c #83BC46",
"E  c #81BB3E",
"W  c #5E9613",
"Q  c #72AA30",
"!  c #80BB3E",
"~  c #7CB53E",
"^  c #70A82B",
"/  c #82BC45",
"(  c #9CD65A",
")  c #A5DA63",
"_  c #84BD47",
"`  c #8AC54B",
"'  c #AADE67",
"]  c #A7E163",
"[  c #88C44A",
"{  c #93D152",
"}  c #9FDA58",
"|  c #84B93E",
" . c #99D051",
".. c #9EDE5A",
"X. c #6CA325",
"o. c #8CC744",
"O. c #86C046",
"+. c #67A01E",
"@. c #669D20",
"#. c #70A92E",
"$. c #5E9614",
"%. c #81BC3E",
"&. c #71A92F",
"*. c #669E1F",
"=. c #80BA42",
"-. c #7BB43D",
";. c #81BB44",
":. c #C1D75A",
">. c #87AC44",
",. c #939140",
"<. c #82B644",
"1. c #73AB31",
"2. c #6CA327",
"3. c #80B942",
"4. c #AFC342",
"5. c #898633",
"6. c #AD752B",
"7. c #809C3A",
"8. c #81BC45",
"9. c #7EB640",
"0. c #76AE34",
"q. c #82BB46",
"w. c #75AD34",
"e. c #75A832",
"r. c #6E8922",
"t. c #7FB943",
"y. c #75AE34",
"u. c #7EB940",
"i. c #86BD47",
"p. c #98C751",
"a. c #81B344",
"s. c #B1D055",
"d. c #E4DF5A",
"f. c #99C64F",
"g. c #84AC43",
"h. c #A7843B",
"j. c #8D9C41",
"k. c #A5CC54",
"l. c #D4DD5E",
"z. c #90C34C",
"x. c #81B035",
"c. c #9CBA3A",
"v. c #7BB138",
"b. c #7CB53D",
"n. c #679F22",
"m. c #6CA428",
"M. c #7AA136",
"N. c #967124",
"B. c #7D8B2C",
"V. c #95BB3E",
"C. c #C3CB47",
"Z. c #86B83F",
"A. c #74AD33",
"S. c #74AD34",
"D. c #77B037",
"F. c #78B138",
"G. c #669E20",
"H. c #7FB941",
"J. c #6EA02B",
"K. c #7AB33C",
"L. c #73AA2F",
"P. c #659C1F",
"I. c #76AE35",
"U. c white",
/* pixels */
"                                                                ",
"    . X o O +           @ # $     + +     + O % % %             ",
"  o & * = - O         + ; : > , , < 1     O - 2 2 3 %           ",
"      4 5 6 o         o 7 8 9 0 q w e     o 6 r 4 t %           ",
"      y . u             u i p a s d f       u 2 g o             ",
"                                h j u                   k l z   ",
"                                % o                   k x c v   ",
"              O                                       b n m M   ",
"              N B                                     o V C h   ",
"              Z A                                               ",
"              + O                                               ",
"                                    S D F G @ # $ H S D F       ",
"                                  J K L P + ; : > I U L P       ",
"                          Y T     R E W Q o 7 8 9 0 ! W Q       ",
"                          Y T       y ~     u i ^ / y ~         ",
"                                                                ",
"                                                                ",
"                      o # a   , ( ) _           % O +     F D ` ",
"                      @ ' ] [ { } | u         % t - O     P  ...",
"                      O X.o.{ O.+.@.+         o j #.o     Q $.%.",
"                        &.*.=.+ -.+             u u         ~ O ",
"                                      o           G @ @ G       ",
"                            ;.        & u         @ :.:.@       ",
"          o               >.,.<.      1.2.    O + 3.4.4.3.      ",
"          & .           ;.5.6.7.8.    9.Y     A Z   0.0.G       ",
"  + O q.w.- 3.            e.r.2 %             & .           t.  ",
"  O - Z w.y.o               u.%               o           i.p.  ",
"  o #.j q.            O     o       ;.a.        z +     G s.d.f.",
"    u u             % N B u &     ;.g.h.j.  G k.l.z.+     x.c.v.",
"                  #.2 b.n.m.1.    8.M.N.B.;.G V.C.Z.    A.S.D.  ",
"                  F.G.  y g 9.      H.J.h     K.L.y % Z P.u o   ",
"                  . I.                ;.              . I.      "
};
