/* XPM */
static char *_cf7f01fbce84027f2f307a809f9cd2aWeCF5JwlRdUQaVH4[] = {
/* columns rows colors chars-per-pixel */
"32 32 60 1 ",
"  c black",
". c #323E4F",
"X c #3D6E70",
"o c #964253",
"O c #BA6156",
"+ c #5E9613",
"@ c #5E9614",
"# c #639B1C",
"$ c #659C1F",
"% c #679E21",
"& c #68A023",
"* c #6BA327",
"= c #6DA52A",
"- c #6FA72C",
"; c #72A828",
": c #71A92E",
"> c #72AA30",
", c #74AC32",
"< c #77AF37",
"1 c #77B037",
"2 c #7EB735",
"3 c #79B23A",
"4 c #7DB43B",
"5 c #7BB33C",
"6 c #7BB43C",
"7 c #7CB43D",
"8 c #3CA370",
"9 c #7EB741",
"0 c #7FB841",
"q c #81B035",
"w c #80BB3E",
"e c #81BC3E",
"r c #9CBA3A",
"t c #80B842",
"y c #81BA44",
"u c #83BC45",
"i c #84BC46",
"p c #86BF48",
"a c #87C049",
"s c #8AC54B",
"d c #8DC54F",
"f c #8CC84D",
"g c #90C64F",
"h c #99C64F",
"j c #90C751",
"k c #98C751",
"l c #90CD50",
"z c #8FDE5D",
"x c #96D450",
"c c #99D051",
"v c #98D755",
"b c #9AD05A",
"n c #9AD758",
"m c #9BDA58",
"M c #9EDE5A",
"N c #A5DC62",
"B c #B0E76B",
"V c #B2E66D",
"C c #E4DF5A",
"Z c #CFFF70",
/* pixels */
"yyyyyyyyyyyyyyyyyyyyyyyyyyyyyyyy",
"yy0ty9tyyyyyiau  ttyyt9yyyyyyyyy",
"yy<=3*9yyyytdV ZZ jyy9*663yyyyyy",
"yyy&*:yyyyyy<; ZZ gyyy:=&5yyyyyy",
"yyy900yyyyyy0 ZZZZ yyy06=yyyyyyy",
"yyyyyyyyyyyy ZZZZZZ yyyyyyyyyppy",
"yyyyyyyyyyyy ZZZZZZ yyyyyyyylBby",
"yyyyyyy9yyyy ZZZZZZ yyyyyyyiv2=y",
"yyyyyyy-,yy ZZZZZZZZ yyyyyyy3#3y",
"yyyyyyy7%yy ZZZZZZZZ yyyyyyyyyyy",
"yyyyyyyt9y ZZZZZZZZZZ yyyyyyyyyy",
"yyyyyyyyyy ZZZZZZZZZZ iauysNbyyy",
"yyyyyyyyy ZZZZZZZZZZZZ Vnamc4yyy",
"yyyyyyyy ZZZzZZZZZZzZZZ xfw+>yyy",
"yyyyyyyy ZZZzZZzzZZzZZZ ;u97yyyy",
"yyyyyyyy ZZzzZZzzZZzzZZ yyyyyyyy",
"yyyyyyy ZZzzzZZzzZZzzzZZ yyyyyyy",
"yyyyyyy ZzzzzZZzzZZzzzzZ 9tyybNs",
"yyyyyyy zzz8zZzzzzZz8zzz *9yy4cM",
"yyyyyy 8zzz8zzzzzzzz8zzz8 yyy>@e",
"yyyyy 888z88zzzzzzzz88z888 yyy79",
"yyyy 88X8X88zz8888zz88X8X88 yyyy",
"yyy XXX.X8888z8888z8888X.XXX yyy",
"yy ....X888X8z8888z8X888X.... yy",
"yyy   X88XX8888888888XX88X   yyy",
"yt9y XXXXXX88XX88XX88XXXXXX yy0y",
"y9* XXX.. XXXXXXXXXXXX ..XXX iky",
"yy ..... XX..XX..XX..XX ..... Ch",
"yy0     XX..XX.  .XX..XX     qr3",
"yyyyyy XX.  X. Oo .X  .XX yy,<1y",
"yyyyyyy    XX OOOo XX    9y7$0yy",
"yyyyyyyyy0<       y  yyyyyy0<yyy"
};
