/* XPM */
static char *NES___Bomberman___General_Sprites__5_1701752714[] = {
/* columns rows colors chars-per-pixel */
"32 32 191 2 ",
"   c #388700",
".  c #388800",
"X  c #398A00",
"o  c #3A8B00",
"O  c #358700",
"+  c #2F8200",
"@  c #63A137",
"#  c #CDE1BF",
"$  c white",
"%  c #D2E6C4",
"&  c #65A339",
"*  c #68A43D",
"=  c #D5E6CA",
"-  c #67A33C",
";  c #D2E4C5",
":  c #398800",
">  c #398900",
",  c #358100",
"<  c #2E6F00",
"1  c #2A6600",
"2  c #2B6700",
"3  c #296600",
"4  c #37740C",
"5  c #559329",
"6  c #8FBD6E",
"7  c #DFEED5",
"8  c #F7F6F8",
"9  c #D5D4D5",
"0  c #C3C2C4",
"q  c #C5C3C7",
"w  c #9FB491",
"e  c #57952B",
"r  c #5C9F2D",
"t  c #ADCE96",
"y  c #ACCD95",
"u  c #599B2A",
"i  c #A9CB91",
"p  c #D5E6C9",
"a  c #3A8C00",
"s  c #3A8D00",
"d  c #2F7100",
"f  c #193B01",
"g  c #0D2001",
"h  c #0D2101",
"j  c #0B1F00",
"k  c #0A1E00",
"l  c #3B502E",
"z  c #9DB28F",
"x  c #E2F1D7",
"c  c #FFFFFB",
"v  c #D7D6D7",
"b  c #717071",
"n  c #3C3B3D",
"m  c #3E3C40",
"M  c #3E5230",
"N  c #3A780E",
"B  c #46930F",
"V  c #60A132",
"C  c #5D9D30",
"Z  c #408C0A",
"A  c #5D9D2F",
"S  c #6CA643",
"D  c #286600",
"F  c #1C4900",
"G  c #051200",
"H  c black",
"J  c #3F3D41",
"K  c #C6C4C8",
"L  c #FDFBFE",
"P  c #DADADA",
"I  c #909090",
"U  c #29292A",
"Y  c #061400",
"T  c #1F4C00",
"R  c #2D7000",
"E  c #317F00",
"W  c #428F0C",
"Q  c #5F9F32",
"!  c #5E9E31",
"~  c #418D0C",
"^  c #328300",
"/  c #183A01",
"(  c #0B1D00",
")  c #091B00",
"_  c #041200",
"`  c #413F42",
"'  c #C8C7C9",
"]  c #DAD9DA",
"[  c #727273",
"{  c #09090A",
"}  c #000300",
"|  c #081500",
" . c #153900",
".. c #296E00",
"X. c #60A330",
"o. c #B2D29B",
"O. c #AFCF99",
"+. c #308200",
"@. c #368200",
"#. c #1E4A00",
"$. c #051100",
"%. c #09060D",
"&. c #2C292E",
"*. c #403F42",
"=. c #434244",
"-. c #323232",
";. c #101011",
":. c #424243",
">. c #CBCBCB",
",. c gray79",
"<. c #3E3E3E",
"1. c #000001",
"2. c #071400",
"3. c #1C4A00",
"4. c #578933",
"5. c #B0CC9C",
"6. c #B1D29A",
"7. c #338400",
"8. c #29272B",
"9. c #908F92",
"0. c #CAC9CB",
"q. c #CDCDCE",
"w. c #979798",
"e. c #303031",
"r. c #434344",
"t. c gray80",
"y. c #404041",
"u. c #010400",
"i. c #254311",
"p. c #61A332",
"a. c #469110",
"s. c #368600",
"d. c #1F4B00",
"f. c #081400",
"g. c #0A070D",
"h. c #29282B",
"j. c #707071",
"k. c #D7D7D7",
"l. c #FEFEFE",
"z. c gray87",
"x. c gray59",
"c. c #2F2F30",
"v. c #2B6F00",
"b. c #348000",
"n. c #061300",
"m. c #2D2B2F",
"M. c #919092",
"N. c gray85",
"B. c gray98",
"V. c #2D2D2E",
"C. c #0D0D0E",
"Z. c #163A00",
"A. c #2D6F00",
"S. c #3B8D00",
"D. c #2B6800",
"F. c #3C3C3D",
"G. c #C5C5C5",
"H. c #C3C3C3",
"J. c #3A3A3B",
"K. c #3B8E00",
"L. c #2C6900",
"P. c #0E2101",
"I. c #2C6A00",
"U. c #204D00",
"Y. c #091800",
"T. c #0B0A0D",
"R. c #2A292B",
"E. c #6F6F6F",
"W. c LightGray",
"Q. c #F8F8F8",
"!. c #D8D8D8",
"~. c #919192",
"^. c #2E2E2F",
"/. c #0B1A01",
"(. c #204E00",
"). c #0E2201",
"_. c #081600",
"`. c #000400",
"'. c #2D2D2F",
"]. c #2A2A2B",
"[. c #0C0C0D",
"{. c #030801",
"}. c #0A1901",
"|. c #3A3A3A",
" X c #939393",
".X c #0F0F10",
"XX c #091601",
"oX c #020501",
"OX c #204C00",
"+X c #183B01",
"@X c white",
/* pixels */
"                  . X o o o o O + @ # $ $ $ $ % & * = = * - ; $ ",
"            : > X , < 1 2 1 3 4 5 6 7 8 9 0 q w e r t y u u i p ",
"          . > a s d f g h j k l z x c v b n m M N B V C Z Z A S ",
"      . > , < 1 D F G H H H H J K L P I U H H Y T R E W Q ! ~ ^ ",
"      > a d / ( ) _ H H H H H ` ' ] [ U { H H } |  ...X.o.O.A +.",
"  . > @.d #.$.%.&.*.=.-.;.H H :.>.,.<.H H 1.1.1.1.2.3.4.5.6.Q 7.",
"  > a d f $.H 8.9.0.q.w.e.H H r.t.>.y.H H 1.1.1.1.u.| i.4.p.a.s.",
". , d d.f.g.h.j.k.l.z.x.c.H H -.w.w.-.H H 1.1.1.1.1.1.| 3.v.b.: ",
"X < f n.H m.M.N.B.k.[ V.C.H H ;.e.e.;.H H 1.1.1.1.1.1.u.2.Z.A.X ",
"S.D.g H H F.G.$ $ H.J.H H 1.1.H H H H 1.1.1.1.1.1.1.1.1.1.g D.S.",
"K.L.P.H H J.H.$ $ G.F.H H 1.1.H H H H 1.1.1.1.1.1.1.1.1.1.P.L.K.",
"I.U.Y.T.R.E.W.Q.!.~.^.H H 1.1.1.1.1.1.1.1.1.1.1.1.1.1.1.1./.(.I.",
")._.`.'.~.!.Q.W.E.].[.H H 1.1.1.1.1.1.1.1.1.1.1.1.1.1.1.1.{.}.).",
"1.H H y.,.$ $ H.|.H H 1.1.1.1.1.1.1.1.1.1.1.1.1.1.1.1.1.1.1.1.1.",
"1.H H y.,.$ $ G.F.H H 1.1.1.1.1.1.1.1.1.1.1.1.1.1.1.1.1.1.1.1.1.",
"1.H H c. X,.,. Xc.H H 1.1.1.1.1.1.1.1.1.1.1.1.1.1.1.1.1.1.1.1.1.",
"1.H H .Xc.y.y.c..XH H 1.1.1.1.1.1.1.1.1.1.1.1.1.1.1.1.1.1.1.1.1.",
"1.1.1.H H H H H H 1.1.1.1.1.1.1.1.1.1.1.1.1.1.1.1.1.1.1.1.1.1.1.",
"1.1.1.H H H H H H 1.1.1.1.1.1.1.1.1.1.1.1.1.1.1.1.1.1.1.1.1.1.1.",
"1.1.1.1.1.1.1.1.1.1.1.1.1.1.1.1.1.1.1.1.1.1.1.1.1.1.1.1.1.1.1.1.",
"1.1.1.1.1.1.1.1.1.1.1.1.1.1.1.1.1.1.1.1.1.1.1.1.1.1.1.1.1.1.1.1.",
").}.{.1.1.1.1.1.1.1.1.1.1.1.1.1.1.1.1.1.1.1.1.1.1.1.1.1.1.{.}.).",
"I.(./.1.1.1.1.1.1.1.1.1.1.1.1.1.1.1.1.1.1.1.1.1.1.1.1.1.1./.(.I.",
"K.L.P.1.1.1.1.1.1.1.1.1.1.1.1.1.1.1.1.1.1.1.1.1.1.1.1.1.1.P.L.K.",
"S.D.g 1.1.1.1.1.1.1.1.1.1.1.1.1.1.1.1.1.1.1.1.1.1.1.1.1.1.g D.S.",
"X < f XXoX1.1.1.1.1.1.1.1.1.1.1.1.1.1.1.1.1.1.1.1.1.1.oXXXf < X ",
". , d OXXX1.1.1.1.1.1.1.1.1.1.1.1.1.1.1.1.1.1.1.1.1.1.XXOXd , . ",
"  > a d +XXXoX1.1.1.1.1.1.1.1.1.1.1.1.1.1.1.1.1.1.oXXX+Xd a >   ",
"  . > @.d OXXX1.1.1.1.1.1.1.1.1.1.1.1.1.1.1.1.1.1.XXOXd @.> .   ",
"      > a d f g P./.{.1.1.1.1.1.1.1.1.1.1.{./.P.g f d a >       ",
"      . > , < D.L.(.}.1.1.1.1.1.1.1.1.1.1.}.(.L.D.< , > .       ",
"          . X S.K.I.).1.1.1.1.1.1.1.1.1.1.).I.K.S.X .           "
};
