/* XPM */
static char *_502c28812104a7987cb72fa72807973OkK4dAtXuunjPrJz[] = {
/* columns rows colors chars-per-pixel */
"32 32 197 2 ",
"   c #388700",
".  c #388800",
"X  c #398A00",
"o  c #3B8D00",
"O  c #3B8E00",
"+  c #2C6A00",
"@  c #0E2201",
"#  c #000001",
"$  c #0C2000",
"%  c #266400",
"&  c #338600",
"*  c #338500",
"=  c #328300",
"-  c #308200",
";  c #6DA744",
":  c #D9E8CE",
">  c #D8E8CE",
",  c #6DA743",
"<  c #338400",
"1  c #358500",
"2  c #398900",
"3  c #358100",
"4  c #2E6F00",
"5  c #2B6800",
"6  c #2C6900",
"7  c #214E00",
"8  c #0A1901",
"9  c black",
"0  c #16240C",
"q  c #4D7B2D",
"w  c #6AA83E",
"e  c #6BA940",
"r  c #6BA841",
"t  c #6CA841",
"y  c #5C9E2E",
"u  c #418D0B",
"i  c #5E9E30",
"p  c #AECE98",
"a  c #AECE97",
"s  c #5D9D2F",
"d  c #328400",
"f  c #3A8C00",
"g  c #2F7100",
"h  c #193B01",
"j  c #0D2001",
"k  c #0E2101",
"l  c #0B1A01",
"z  c #040801",
"x  c #2D322A",
"c  c #9AA98F",
"v  c #D3E8C5",
"b  c #D4E9C6",
"n  c #D5E8C8",
"m  c #D6E9C9",
"M  c #ADCF94",
"N  c #5C9D2E",
"B  c #418D0C",
"V  c #5D9D30",
"C  c #5E9E31",
"Z  c #368600",
"A  c #368200",
"S  c #1F4B00",
"D  c #061300",
"F  c #0C0C0D",
"G  c #2A2A2B",
"H  c #717072",
"J  c #D9D8DA",
"K  c #FCFBFE",
"L  c #D9D7DA",
"P  c #C7C4C9",
"I  c #C8C5CB",
"U  c #A4B698",
"Y  c #5B9730",
"T  c #318400",
"R  c #5F9E32",
"E  c #5F9F32",
"W  c #458F10",
"Q  c #071400",
"!  c gray18",
"~  c #919192",
"^  c #DADADA",
"/  c #FEFEFF",
"(  c #727073",
")  c #3C3A3E",
"_  c #3E3B41",
"`  c #3F5132",
"'  c #3B7810",
"]  c #368900",
"[  c #328500",
"{  c #B1D09B",
"}  c #B0CF9A",
"|  c #1E4A00",
" . c #051100",
".. c #0B080E",
"X. c #2E2D30",
"o. c #303031",
"O. c #101011",
"+. c #404041",
"@. c #C8C8C8",
"#. c #FEFEFE",
"$. c #909090",
"%. c #29292A",
"&. c #061400",
"*. c #1E4B00",
"=. c #2D6F00",
"-. c #327F00",
";. c #60A033",
":. c #B2D19C",
">. c #183A01",
",. c #2C2B2E",
"<. c #959596",
"1. c #979798",
"2. c #323232",
"3. c #414142",
"4. c gray79",
"5. c #727273",
"6. c #09090A",
"7. c #000300",
"8. c #081500",
"9. c #173A00",
"0. c #2D6E00",
"q. c #469111",
"w. c #60A133",
"e. c #2A6600",
"r. c #0B1D00",
"t. c #0A060D",
"y. c #29272B",
"u. c #737374",
"i. c gainsboro",
"p. c #CBCBCB",
"a. c #424243",
"s. c #3E3E3E",
"d. c #0D1F01",
"f. c #2B6700",
"g. c #398B00",
"h. c #358700",
"j. c #348500",
"k. c #378600",
"l. c #3A8D00",
"z. c #286600",
"x. c #091B00",
"c. c #2C292F",
"v. c #908F92",
"b. c gray99",
"n. c #C6C6C6",
"m. c #3F3F40",
"M. c #434344",
"N. c gray80",
"B. c #378800",
"V. c #378700",
"C. c #1B4800",
"Z. c #010F00",
"A. c #3B3A3D",
"S. c #C4C4C5",
"D. c white",
"F. c gray77",
"G. c #3E3E3F",
"H. c #0A1801",
"J. c #204D00",
"K. c #398800",
"L. c #041100",
"P. c #39393B",
"I. c #C3C2C3",
"U. c #030601",
"Y. c #091601",
"T. c #296500",
"R. c #6F6F6F",
"E. c LightGray",
"W. c #F8F8F8",
"Q. c #D8D8D8",
"!. c #2E2E2F",
"~. c #0C1E01",
"^. c #276300",
"/. c #081A00",
"(. c #071A00",
"). c #3F3D41",
"_. c #C8C7C9",
"`. c #C3C3C3",
"'. c #3A3A3A",
"]. c #C5C5C5",
"[. c #3C3C3D",
"{. c #286400",
"}. c #091C00",
"|. c #2D2C30",
" X c #929193",
".X c #939393",
"XX c #2F2F30",
"oX c #0C1F00",
"OX c #0E0C10",
"+X c #0F0F10",
"@X c #2B6600",
"#X c #020501",
"$X c #204C00",
"%X c #183B01",
"&X c #030801",
"*X c #204E00",
"=X c white",
/* pixels */
"                  . X o O + @ # # $ % & * = = - = ; : > , < 1   ",
"              . 2 3 4 5 6 7 8 9 9 0 q w e r t y u i p a s d 1   ",
"              2 f g h j k l z 9 9 x c v b n m M N B V C B < Z   ",
"          . 2 A g S D 9 9 9 9 F G H J K L P I U Y & T B R E W Z ",
"          2 f g h Q 9 9 9 9 9 ! ~ ^ / J ( ) _ ` ' ] [ i { } E < ",
"        . 3 g |  ...X.o.O.9 9 +.@.#.^ $.%.9 9 &.*.=.-.;.:.} R < ",
"      2 2 4 >. .9 ,.<.1.2.9 9 3.4.^ 5.%.6.9 9 7.8.9.0.q.w.E W Z ",
"      X f e.r.t.y.u.i.p.a.9 9 a.p.4.s.9 9 # # # # d.f.g.h.j.k.  ",
"      X l.z.x.c.v.^ b.n.m.9 9 M.N.p.+.9 9 # # # # j 5 f B.Z V.  ",
"    . 3 g C.Z.A.S.D.D.F.G.9 9 2.1.1.2.9 9 # # # # H.J.g 3 .     ",
"  K.2 4 >.L.9 P.I.D.D.n.m.9 9 O.o.o.O.9 9 # # # # U.Y.>.4 2 K.  ",
"  2 X T.r.t.y.R.E.W.Q.~ !.9 9 9 9 9 9 # # # # # # # # ~.e.X 2   ",
"  2 X ^./.c.v.Q.W.E.R.G F 9 9 9 9 9 9 # # # # # # # # d.e.X 2   ",
"  2 X ^.(.)._.D.D.`.'.9 9 # # # # # # # # # # # # # # k e.X 2   ",
"  2 X ^.(.)._.D.D.].[.9 9 # # # # # # # # # # # # # # k e.X 2   ",
"  2 X {.}.|. X4.4..XXX9 9 # # # # # # # # # # # # # # k e.X 2   ",
"  2 X e.oXOXX.+.+.XX+X9 9 # # # # # # # # # # # # # # k e.X 2   ",
"  2 X f.k 9 9 9 9 9 9 # # # # # # # # # # # # # # # # k e.X 2   ",
"  2 X @Xk 9 9 9 9 9 9 # # # # # # # # # # # # # # # # k e.X 2   ",
"  2 X e.d.# # # # # # # # # # # # # # # # # # # # # # d.e.X 2   ",
"  2 X e.~.# # # # # # # # # # # # # # # # # # # # # # ~.e.X 2   ",
"  K.2 4 >.Y.U.# # # # # # # # # # # # # # # # # # U.Y.>.4 2 K.  ",
"    . 3 g J.H.# # # # # # # # # # # # # # # # # # H.J.g 3 .     ",
"      X l.5 j # # # # # # # # # # # # # # # # # # j 5 l.X       ",
"      X f f.d.# # # # # # # # # # # # # # # # # # d.f.f X       ",
"      2 2 4 >.Y.#X# # # # # # # # # # # # # # #XY.>.4 2 2       ",
"        . 3 g $XY.# # # # # # # # # # # # # # Y.$Xg 3 .         ",
"          2 f g %XY.#X# # # # # # # # # # #XY.%Xg f 2           ",
"          . 2 A g $XY.# # # # # # # # # # Y.$Xg A 2 .           ",
"              2 f g h j k l &X# # &Xl k j h g f 2               ",
"              . 2 3 4 5 6 *X8 # # 8 *X6 5 4 3 2 .               ",
"                  . X o O + @ # # @ + O o X .                   "
};
