/* XPM */
static char *_f30a6c116ec47e6806cc877fb4e7a57z7LW2LqlOwPwSB5k[] = {
/* columns rows colors chars-per-pixel */
"32 32 221 2 ",
"   c #388700",
".  c #388800",
"X  c #398A00",
"o  c #3A8B00",
"O  c #358700",
"+  c #2F8200",
"@  c #63A137",
"#  c #CDE1BF",
"$  c white",
"%  c #D1E3C4",
"&  c #65A239",
"*  c #68A43D",
"=  c #D5E6CA",
"-  c #D8E8CE",
";  c #6DA743",
":  c #338400",
">  c #358500",
",  c #398800",
"<  c #398900",
"1  c #358100",
"2  c #2E6F00",
"3  c #2A6500",
"4  c #296500",
"5  c #37740C",
"6  c #559329",
"7  c #8FBC6E",
"8  c #DFEDD5",
"9  c #FDFFFB",
"0  c #E3F0DA",
"q  c #A8CC8F",
"w  c #569A27",
"e  c #599B2A",
"r  c #ACCD95",
"t  c #AFCF98",
"y  c #5F9F32",
"u  c #348500",
"i  c #368600",
"p  c #3A8C00",
"a  c #3A8D00",
"s  c #2F7100",
"d  c #193B01",
"f  c #0A1D00",
"g  c #091C00",
"h  c #3B502E",
"j  c #9DB28F",
"k  c #E1EFD7",
"l  c #FEFFFB",
"z  c #E2F0D8",
"x  c #93C072",
"c  c #5A9D2A",
"v  c #3D8B07",
"b  c #408C0A",
"n  c #5D9D30",
"m  c #458F11",
"M  c #378600",
"N  c #378700",
"B  c #2A6600",
"V  c #286600",
"C  c #1C4900",
"Z  c #061300",
"A  c black",
"S  c #3F3D41",
"D  c #C6C4C8",
"F  c #FCFAFE",
"G  c #D9D7DA",
"H  c #99A88F",
"J  c #497828",
"K  c #347208",
"L  c #5A972F",
"P  c #60A132",
"I  c #438F0C",
"U  c #348600",
"Y  c #183A01",
"T  c #0B1D00",
"R  c #091B00",
"E  c #041300",
"W  c #000200",
"Q  c #413F42",
"!  c #C8C7C9",
"~  c #D9D8DA",
"^  c #727173",
"/  c #2A2F27",
"(  c #0F1F05",
")  c #3D502F",
"_  c #A7B99A",
"`  c #B3D69B",
"'  c #60A230",
"]  c #338600",
"[  c #358600",
"{  c #368200",
"}  c #1E4A00",
"|  c #051100",
" . c #0A060D",
".. c #2C292F",
"X. c #3B393D",
"o. c #333234",
"O. c #1E1E1F",
"+. c #050506",
"@. c #414142",
"#. c #CACACA",
"$. c gray79",
"%. c #3E3E3E",
"&. c #312E34",
"*. c #9A969D",
"=. c #A5B29C",
"-. c #537F33",
";. c #2A6D00",
":. c #337F00",
">. c #2A282C",
",. c #919093",
"<. c #BAB9BB",
"1. c #9D9D9D",
"2. c #636364",
"3. c #1A1A1B",
"4. c gray25",
"5. c #CBCBCB",
"6. c #404041",
"7. c #100E12",
"8. c #323034",
"9. c #353834",
"0. c #1A2611",
"q. c #173900",
"w. c #2E7000",
"e. c #1E4B00",
"r. c #061200",
"t. c #08050B",
"y. c #28272A",
"u. c #717172",
"i. c gray85",
"p. c #EEEEEE",
"a. c #AEAEAE",
"s. c gray39",
"d. c #1B1B1C",
"f. c #2E2E2F",
"g. c #959596",
"h. c #979798",
"j. c #323232",
"k. c #091601",
"l. c #204C01",
"z. c #051200",
"x. c #2A282B",
"c. c #908F91",
"v. c #FBFBFB",
"b. c #D1D1D2",
"n. c #1C1C1D",
"m. c #060607",
"M. c #0F0F10",
"N. c #2F2F30",
"B. c #303031",
"V. c #101011",
"C. c #020501",
"Z. c #2A6700",
"A. c #0C1E00",
"S. c #040108",
"D. c #19171B",
"F. c #5F5F60",
"G. c gray82",
"H. c #C1C1C1",
"J. c gray23",
"K. c #000001",
"L. c #0D1F01",
"P. c #2B6700",
"I. c #296600",
"U. c #1C191F",
"Y. c #605E61",
"T. c #A5A6A6",
"R. c #E6E6E6",
"E. c gray76",
"W. c #3C3C3D",
"Q. c #0D2001",
"!. c #2B6800",
"~. c #1D4A00",
"^. c #051400",
"/. c #2E2D30",
"(. c #959496",
"). c #DADADA",
"_. c gray96",
"`. c #F9F9F9",
"'. c gray71",
"]. c #39393A",
"[. c #0A1801",
"{. c #204D00",
"}. c #000100",
"|. c #B4B4B5",
" X c gray59",
".X c #030601",
"XX c #3E3E3F",
"oX c gray77",
"OX c #E4E4E4",
"+X c #A5A5A5",
"@X c gray38",
"#X c #0D2101",
"$X c #CDCDCE",
"%X c #5E5E5F",
"&X c #070708",
"*X c #0E2201",
"=X c #3A3A3A",
"-X c #F8F8F8",
";X c #B4B4B4",
":X c #363637",
">X c #979797",
",X c gray81",
"<X c #969697",
"1X c #202021",
"2X c #646464",
"3X c #898989",
"4X c #0A0A0B",
"5X c #1F1F20",
"6X c #2B2B2C",
"7X c #204C00",
"8X c #183B01",
"9X c #0E2101",
"0X c #0B1A01",
"qX c #030801",
"wX c #2C6900",
"eX c #204E00",
"rX c #0A1901",
"tX c #3B8D00",
"yX c #3B8E00",
"uX c #2C6A00",
"iX c white",
/* pixels */
"                      . X o o O + @ # $ $ % & * = - ; : >       ",
"                , < X 1 2 3 4 5 6 7 8 9 0 q w e r t y u i       ",
"              . < p a s d f g h j k l z x c v b n y m M N       ",
"          . < 1 2 B V C Z A A S D F G H J K L P I U i           ",
"          < p s Y T R E W A A Q ! ~ ^ / ( ) _ ` ' ] [           ",
"      . < { s } |  ...X.o.O.+.@.#.$.%.A A &.*.=.-.;.:.< .       ",
"      < p s d | A >.,.<.1.2.3.4.#.5.6.A A 7.8.9.0.q.w.p <       ",
"    . 1 s e.r.t.y.u.i.p.a.s.d.f.g.h.j.A A A A A A k.l.s 1 .     ",
"  , < 2 Y z.A x.c.i.v.b.s.n.m.M.N.B.V.A A A A A A C.k.Y 2 < ,   ",
"  < p Z.A.S.D.F.G.$ $ H.J.A A A A A A K.K.K.K.K.K.K.K.L.P.p <   ",
"  X a I.f U.Y.T.R.$ $ E.W.A A A A A A K.K.K.K.K.K.K.K.Q.!.a X   ",
". 1 s ~.^./.(.)._.$ `.'.].A A K.K.K.K.K.K.K.K.K.K.K.K.[.{.s 1 . ",
"X 2 d Z }.].|.`.$ _.). XN.A A K.K.K.K.K.K.K.K.K.K.K.K..Xk.d 2 X ",
"o B Q.A A XXoX$ $ OX+X@XO.A A K.K.K.K.K.K.K.K.K.K.K.K.K.K.Q.B o ",
"o P.#XA A XXoX$ $ $X%X3.&XA A K.K.K.K.K.K.K.K.K.K.K.K.K.K.#XP.o ",
"o P.*XA A =X'.-X-X;X:XA A K.K.K.K.K.K.K.K.K.K.K.K.K.K.K.K.*XP.o ",
"o P.*XA A B.>X,X,X<Xf.A A K.K.K.K.K.K.K.K.K.K.K.K.K.K.K.K.*XP.o ",
"o P.*XA A 1X2X3X3X2X1XA A K.K.K.K.K.K.K.K.K.K.K.K.K.K.K.K.*XP.o ",
"o P.*XA A 4X5X6X6X5X4XA A K.K.K.K.K.K.K.K.K.K.K.K.K.K.K.K.*XP.o ",
"o P.#XK.K.A A A A A A K.K.K.K.K.K.K.K.K.K.K.K.K.K.K.K.K.K.#XP.o ",
"o B Q.K.K.A A A A A A K.K.K.K.K.K.K.K.K.K.K.K.K.K.K.K.K.K.Q.B o ",
"X 2 d k..XK.K.K.K.K.K.K.K.K.K.K.K.K.K.K.K.K.K.K.K.K.K..Xk.d 2 X ",
". 1 s {.[.K.K.K.K.K.K.K.K.K.K.K.K.K.K.K.K.K.K.K.K.K.K.[.{.s 1 . ",
"  X a !.Q.K.K.K.K.K.K.K.K.K.K.K.K.K.K.K.K.K.K.K.K.K.K.Q.!.a X   ",
"  < p P.L.K.K.K.K.K.K.K.K.K.K.K.K.K.K.K.K.K.K.K.K.K.K.L.P.p <   ",
"  , < 2 Y k.C.K.K.K.K.K.K.K.K.K.K.K.K.K.K.K.K.K.K.C.k.Y 2 < ,   ",
"    . 1 s 7Xk.K.K.K.K.K.K.K.K.K.K.K.K.K.K.K.K.K.K.k.7Xs 1 .     ",
"      < p s 8Xk.C.K.K.K.K.K.K.K.K.K.K.K.K.K.K.C.k.8Xs p <       ",
"      . < { s 7Xk.K.K.K.K.K.K.K.K.K.K.K.K.K.K.k.7Xs { < .       ",
"          < p s d Q.9X0XqXK.K.K.K.K.K.qX0X9XQ.d s p <           ",
"          . < 1 2 !.wXeXrXK.K.K.K.K.K.rXeXwX!.2 1 < .           ",
"              . X tXyXuX*XK.K.K.K.K.K.*XuXyXtXX .               "
};
