/* XPM */
static char *f5ad58271d274f9ac71723f3ef55b05agT3JgYbMgVvK83kS[] = {
/* columns rows colors chars-per-pixel */
"32 32 172 2 ",
"   c #388700",
".  c #388800",
"X  c #398A00",
"o  c #3B8D00",
"O  c #3B8E00",
"+  c #2C6A00",
"@  c #0E2201",
"#  c black",
"$  c #398900",
"%  c #358100",
"&  c #2E6F00",
"*  c #2A6700",
"=  c #296800",
"-  c #1C4C00",
";  c #051600",
":  c #0B0406",
">  c #2C1514",
",  c #3E1F1C",
"<  c #3D1F1C",
"1  c #3C1E1B",
"2  c #3A8C00",
"3  c #2F7100",
"4  c #193B01",
"5  c #0C1F00",
"6  c #091F00",
"7  c #021500",
"8  c #000300",
"9  c #291413",
"0  c #8F483F",
"q  c #C36356",
"w  c #C26255",
"e  c #BF6054",
"r  c #368200",
"t  c #2F7200",
"y  c #1E4B00",
"u  c #051400",
"i  c #0A0006",
"p  c #2C1215",
"a  c #3B1C1B",
"s  c #3A1C1A",
"d  c #6E3831",
"f  c #D56C5E",
"g  c #FF8675",
"h  c #FF8674",
"j  c #FF8473",
"k  c #193C01",
"l  c #291213",
"z  c #904740",
"x  c #C56257",
"c  c #C36256",
"v  c #D16A5C",
"b  c #F37B6B",
"n  c #FF8472",
"m  c #FF8372",
"M  c #1E4D00",
"N  c #051500",
"B  c #070005",
"V  c #281213",
"C  c #6F3831",
"Z  c #D66C5E",
"A  c #FF8371",
"S  c #FF806F",
"D  c #FF7F6E",
"F  c #FF806E",
"G  c #FF816F",
"H  c #FF8170",
"J  c #061600",
"K  c #000200",
"L  c #8F4840",
"P  c #F67C6C",
"I  c #FF8270",
"U  c #FF7E6C",
"Y  c #FF7F6D",
"T  c #0B0306",
"R  c #FF8878",
"E  c #FF988A",
"W  c #FFA295",
"Q  c #FFA497",
"!  c #FF9B8D",
"~  c #FF8979",
"^  c #FF8271",
"/  c #FFC9C2",
"(  c #FFE6E2",
")  c #FFE9E5",
"_  c #FFCEC7",
"`  c #FF9A8C",
"'  c #FF7D6C",
"]  c #FF7E6D",
"[  c #FFA194",
"{  c #FFE4E0",
"}  c #EFF7F8",
"|  c #CFD7D8",
" . c #CFB3AF",
".. c #EF9084",
"X. c #FF7D6B",
"o. c #FFA396",
"O. c #FFE7E3",
"+. c #CDD4D5",
"@. c #686E70",
"#. c #684B47",
"$. c #CD6E62",
"%. c #FFE8E4",
"&. c #BBC2C3",
"*. c #303738",
"=. c #301310",
"-. c #BB5C4F",
";. c #BBC3C4",
":. c #30383A",
">. c #301411",
",. c #BB5C50",
"<. c #CDB3AF",
"1. c #684D4A",
"2. c #68322C",
"3. c #CD6759",
"4. c #EF9184",
"5. c #CF7064",
"6. c #CF685A",
"7. c #EF7969",
"8. c #CD685A",
"9. c #BB5F52",
"0. c #CF695B",
"q. c #68342E",
"w. c #301816",
"e. c #FF8574",
"r. c #D26A5C",
"t. c #69352F",
"y. c #FF8775",
"u. c #F47B6B",
"i. c #183A01",
"p. c #0B1E00",
"a. c #091E00",
"s. c #011400",
"d. c #000100",
"f. c #F57A6A",
"g. c #286700",
"h. c #1B4B00",
"j. c #041400",
"k. c #3A1D1A",
"l. c #6D3730",
"z. c #D3695A",
"x. c #FF8471",
"c. c #3A8D00",
"v. c #091D00",
"b. c #001300",
"n. c #3A2423",
"m. c #C37B72",
"M. c #FFAA9C",
"N. c #184800",
"B. c #001100",
"V. c #3B3436",
"C. c #C4ADAC",
"Z. c #FFEFEB",
"A. c #286500",
"S. c #091B00",
"D. c #2C2A30",
"F. c #919196",
"G. c #C8CACD",
"H. c #3A8B00",
"J. c #2A6600",
"K. c #0B1D00",
"L. c #0C0910",
"P. c #2D2B31",
"I. c #3F3F43",
"U. c #2E6E00",
"Y. c #183901",
"T. c #081B00",
"R. c #071A00",
"E. c #357F00",
"W. c #296500",
"Q. c #276300",
"!. c #398800",
"~. c white",
/* pixels */
"      . X o O + @ # # # # # # # # # # # # # # @ + O o X .       ",
"  . $ % & * = - ; : > , < 1 1 1 1 1 1 < , > : ; - = * & % $ .   ",
"  $ 2 3 4 5 6 7 8 9 0 q w e e e e e e w q 0 9 8 7 6 5 4 3 2 $   ",
"X r t y u i p a s d f g h j j j j j j h g f d s a p i u y t r X ",
"o t k u # l z x c v b n m m m m m m m m n b v c x z l # u k t o ",
"+ M N B V C Z g h A S D D F G H H G F D D S A h g Z C V B N M + ",
"@ J K V L Z P n n I D U U Y S H H S Y U U D I n n P Z L V K J @ ",
"# T 9 C Z h m S S R E W Q ! ~ S S R E W Q ! ~ S S m h Z C 9 T # ",
"# > 0 Z P m ^ F Y E / ( ) _ ` ' ' E / ( ) _ ` Y D ^ m P Z 0 > # ",
"# , q g n H H D ] [ { } |  ...U X.[ { } |  ...D S H H n g q , # ",
"# < w h m H H D ] o.O.+.@.#.$.G Y o.O.+.@.#.$.A ^ H H m h w < # ",
"# < w h m H H D ] Q %.&.*.=.-.^ F Q %.&.*.=.-.j m H H m h w < # ",
"# , q g n H H D ] Q ) ;.:.>.,.^ F Q ) ;.:.>.,.j m H H n g q , # ",
"# > 0 f b ^ H F Y ! _ <.1.2.3.I S ! _ <.1.2.3.m ^ H ^ b f 0 > # ",
"# : 9 d v m ^ G S ~ ` 4.5.6.7.H H ~ ` 4.5.6.7.^ H ^ m v d 9 : # ",
"@ ; 8 s c h m H H S Y D A j m m m I D D A m ^ H H m h c s 8 ; @ ",
"+ - 7 a x g n H H S F S ^ m n j j A S S ^ A I H H n g x a 7 - + ",
"O = 6 p z Z P n m ^ H H ^ 7.8.9.9.8.7.^ H H ^ m n P Z z p 6 = O ",
"o * 5 i l C Z g h m ^ ^ m 0.q.w.w.q.0.m ^ ^ m h g Z C l i 5 * o ",
"X & 4 u # l z x c v b e.h r.t.w.w.t.r.h e.b v c x z l # u 4 & X ",
". % 3 y u i p a s d f y.g u.0.9.9.0.u.g y.f d s a p i u y 3 % . ",
"  $ 2 3 i.p.a.s.d.l z x c r.f.m m f.r.c x z l d.s.a.p.i.3 2 $   ",
"  . $ % & * g.h.j.i p a k.l.z.x.x.z.l.k.a p i j.h.g.* & % $ .   ",
"      . $ 2 c.3 i.p.v.b.d.n.m.M.M.m.n.d.b.v.p.i.3 c.2 $ .       ",
"        $ X X % & * g.N.B.V.C.Z.Z.C.V.B.N.g.* & % X X $         ",
"              . $ 2 o A.S.D.F.G.G.F.D.S.A.o 2 $ .               ",
"                $ H.2 J.K.L.P.I.I.P.L.K.J.2 H.$                 ",
"                  $ $ U.Y.K.T.R.R.T.K.Y.U.$ $                   ",
"                    . E.U.W.Q.Q.Q.Q.W.U.E..                     ",
"                      . $ X X X X X X $ .                       ",
"                        !.$ $ $ $ $ $ !.                        ",
"                                                                "
};
