/* XPM */
static char *_cbe03351da64754d18da50f3ef5c510LmYsO4ZE96mWBOK8[] = {
/* columns rows colors chars-per-pixel */
"32 32 155 2 ",
"   c #388700",
".  c #388800",
"X  c #398A00",
"o  c #3B8D00",
"O  c #3B8E00",
"+  c #2C6A00",
"@  c #0E2201",
"#  c black",
"$  c #398900",
"%  c #358100",
"&  c #2E6F00",
"*  c #2A6700",
"=  c #296800",
"-  c #1C4C00",
";  c #051600",
":  c #0B0406",
">  c #2C1514",
",  c #3E1F1C",
"<  c #3D1F1C",
"1  c #3C1E1B",
"2  c #3A8C00",
"3  c #2F7100",
"4  c #193B01",
"5  c #0C1F00",
"6  c #091F00",
"7  c #021500",
"8  c #000300",
"9  c #291413",
"0  c #8F483F",
"q  c #C36356",
"w  c #C26255",
"e  c #BF6054",
"r  c #368200",
"t  c #1E4B00",
"y  c #051400",
"u  c #0A0006",
"i  c #2C1215",
"p  c #3B1C1B",
"a  c #3A1C1A",
"s  c #6E3831",
"d  c #D56C5E",
"f  c #FF8675",
"g  c #FF8674",
"h  c #FF8473",
"j  c #291213",
"k  c #904740",
"l  c #C56257",
"z  c #C36256",
"x  c #D16A5C",
"c  c #F37B6B",
"v  c #FF8472",
"b  c #FF8372",
"n  c #070005",
"m  c #281213",
"M  c #6F3831",
"N  c #D66C5E",
"B  c #FF8271",
"V  c #FF8170",
"C  c #8F4840",
"Z  c #F67C6C",
"A  c #3A8B00",
"S  c #2A6600",
"D  c #FF806F",
"F  c #FF806E",
"G  c #FF7F6E",
"H  c #FF816F",
"J  c #286500",
"K  c #091E00",
"L  c #FF7F6D",
"P  c #FF7E6D",
"I  c #276500",
"U  c #081F00",
"Y  c #3E1D1C",
"T  c #FF8878",
"R  c #FF988A",
"E  c #FFA295",
"W  c #FFA497",
"Q  c #FF9B8D",
"!  c #FF8979",
"~  c #3D1C1C",
"^  c #C46157",
"/  c #FFC9C2",
"(  c #FFE6E2",
")  c #FFE9E5",
"_  c #FFCEC7",
"`  c #FF9A8C",
"'  c #FF7D6C",
"]  c #3C1C1C",
"[  c #C16055",
"{  c #FFA194",
"}  c #FFE4E0",
"|  c #EFF7F8",
" . c #CFD7D8",
".. c #CFB3AF",
"X. c #EF9084",
"o. c #FF7E6C",
"O. c #FF7D6B",
"+. c #FFA396",
"@. c #FFE7E3",
"#. c #CDD4D5",
"$. c #686E70",
"%. c #684B47",
"&. c #CD6E62",
"*. c #FF8371",
"=. c #FFE8E4",
"-. c #BBC2C3",
";. c #303738",
":. c #301310",
">. c #BB5C4F",
",. c #BBC3C4",
"<. c #30383A",
"1. c #301411",
"2. c #BB5C50",
"3. c #CDB3AF",
"4. c #684D4A",
"5. c #68322C",
"6. c #CD6759",
"7. c #FF8270",
"8. c #EF9184",
"9. c #CF7064",
"0. c #CF685A",
"q. c #EF7969",
"w. c #CD685A",
"e. c #BB5F52",
"r. c #CF695B",
"t. c #68342E",
"y. c #301816",
"u. c #FF8573",
"i. c #D56B5D",
"p. c #F37A69",
"a. c #281313",
"s. c #6E3730",
"d. c #D1685A",
"f. c #041300",
"g. c #392423",
"h. c #C37B72",
"j. c #FFAA9C",
"k. c #1B4900",
"l. c #011100",
"z. c #3B3436",
"x. c #C4ADAC",
"c. c #FFEFEB",
"v. c #3A8D00",
"b. c #296600",
"n. c #091D00",
"m. c #2D2B30",
"M. c #909194",
"N. c #C6C9CA",
"B. c #0C2000",
"V. c #0D0C10",
"C. c #2D2D30",
"Z. c #3E4041",
"A. c #2B6700",
"S. c #0E2101",
"D. c white",
/* pixels */
"          . X o O + @ # # # # # # # # # # @ + O o X .           ",
"      . $ % & * = - ; : > , < 1 1 < , > : ; - = * & % $ .       ",
"      $ 2 3 4 5 6 7 8 9 0 q w e e w q 0 9 8 7 6 5 4 3 2 $       ",
"  . $ r 3 t y u i p a s d f g h h g f d s a p i u y t 3 r $ .   ",
"  $ 2 3 4 y # j k l z x c v b b b b v c x z l k j # y 4 3 2 $   ",
". % 3 t y n m M N f g b B V V V V V V B b g f N M m n y t 3 % . ",
"X & 4 y # m C N Z v b B V V V V V V V V B b v Z N C m # y 4 & X ",
"A S 5 u j M N g b D F G G F H V V H F G G F D b g N M j u 5 S A ",
"A J K i k N Z b B D L P P L D V V D L P P L D B b Z N k i K J A ",
"A I U Y l f v D D T R E W Q ! D D T R E W Q ! D D v f l Y U I A ",
"A I U ~ ^ g b F L R / ( ) _ ` ' ' R / ( ) _ ` L G b g ^ ~ U I A ",
"A I U ] [ h b G P { } |  ...X.o.O.{ } |  ...X.G D b h [ ] U I A ",
"A I U ] [ h b G P +.@.#.$.%.&.H L +.@.#.$.%.&.*.B b h [ ] U I A ",
"A I U ] [ h b G P W =.-.;.:.>.B F W =.-.;.:.>.h b b h [ ] U I A ",
"A I U ] [ h b G P W ) ,.<.1.2.B F W ) ,.<.1.2.h b b h [ ] U I A ",
"A I U ~ ^ g b F L Q _ 3.4.5.6.7.D Q _ 3.4.5.6.b B b g ^ ~ U I A ",
"A I U Y l f v D D ! ` 8.9.0.q.V V ! ` 8.9.0.q.B V v f l Y U I A ",
"A J K i k N Z b B D L G *.h b b b 7.G G *.b B B b Z N k i K J A ",
"A S 5 u j M N g b D G D B b v h h *.D D B B V b g N M j u 5 S A ",
"X & 4 y # m C N Z b B V B q.w.e.e.w.q.B V B b Z N C m # y 4 & X ",
". % 3 t y n m M N g b B b r.t.y.y.t.r.b B b g N M m n y t 3 % . ",
"  $ 2 3 4 y # m C N Z u.h r.t.y.y.t.r.h u.Z N C m # y 4 3 2 $   ",
"  . $ r 3 t y n m M N g h q.w.e.e.w.q.h g N M m n y t 3 r $ .   ",
"      $ 2 3 4 y # m C N Z h h h h h h Z N C m # y 4 3 2 $       ",
"      . $ r 3 t y n m M N g u.b b u.g N M m n y t 3 r $ .       ",
"          $ 2 3 4 y # m C i.p.D D p.i.C m # y 4 3 2 $           ",
"          . $ r 3 t y n a.s.d.7.7.d.s.a.n y t 3 r $ .           ",
"              $ 2 3 4 f.# g.h.j.j.h.g.# f.4 3 2 $               ",
"              . $ r 3 k.l.z.x.c.c.x.z.l.k.3 r $ .               ",
"                  X v.b.n.m.M.N.N.M.m.n.b.v.X                   ",
"                  $ 2 * B.V.C.Z.Z.C.V.B.* 2 $                   ",
"                  $ X A.S.# # # # # # S.A.X $                   "
};
