/* XPM */
static char *NES___Bomberman___General_Sprites__2_1701752713[] = {
/* columns rows colors chars-per-pixel */
"32 32 157 2 ",
"   c #CE7E4E",
".  c #CF7F52",
"X  c #D47F54",
"o  c #DC7F59",
"O  c #F97E69",
"+  c #FF7F72",
"@  c #2F8400",
"#  c #358600",
"$  c #388700",
"%  c #3A8D06",
"&  c #3A8A0A",
"*  c #3E8E2C",
"=  c #3C8C25",
"-  c #3D8F39",
";  c #438706",
":  c #418D0C",
">  c #56840E",
",  c #5D810F",
"<  c #578612",
"1  c #5C8614",
"2  c #618212",
"3  c #698516",
"4  c #69851B",
"5  c #63891B",
"6  c #559B25",
"7  c #5A9D2C",
"8  c #589C28",
"9  c #5F8A3B",
"0  c #41903D",
"q  c #49943D",
"w  c #5D9E35",
"e  c #6A8D24",
"r  c #629A2B",
"t  c #6A9D36",
"y  c #659A30",
"u  c #5EA03E",
"i  c #62A136",
"p  c #64A53C",
"a  c #3F9467",
"s  c #679053",
"d  c #6AA540",
"f  c #7DB25A",
"g  c #48976C",
"h  c #6EAC6B",
"j  c #66A867",
"k  c #71AD6C",
"l  c #8D812C",
"z  c #8E8430",
"x  c #918431",
"c  c #A7833E",
"v  c #A9833F",
"b  c #8D9A42",
"n  c #919C4D",
"m  c #AC8441",
"M  c #A98348",
"N  c #89A24E",
"B  c #8BA352",
"V  c #B58E7F",
"C  c #8CBA6C",
"Z  c #8FBD72",
"A  c #CF8254",
"S  c #D38155",
"D  c #D58258",
"F  c #DE815C",
"G  c #E2805D",
"H  c #CF9A6D",
"J  c #D19A6F",
"K  c #D59B74",
"L  c #D89E7A",
"P  c #E18965",
"I  c #E38160",
"U  c #FA806C",
"Y  c #FF8175",
"T  c #FF847A",
"R  c #DBA07F",
"E  c #4F9D8E",
"W  c #539D92",
"Q  c #55A4C1",
"!  c #58A7CC",
"~  c #56A6D1",
"^  c #5BA8D3",
"/  c #59A7D2",
"(  c #66A7CB",
")  c #73B4C2",
"_  c #7CBACE",
"`  c #7EA5D8",
"'  c #5DABF2",
"]  c #5EAEFF",
"[  c #5EB0FF",
"{  c #61AEFF",
"}  c #62B1FF",
"|  c #6BB4FF",
" . c #7EBDFF",
".. c #78BBF1",
"X. c #DF8C96",
"o. c #FC9586",
"O. c #FF958B",
"+. c #FF9B8F",
"@. c #F99885",
"#. c #FF9D92",
"$. c #DEA382",
"%. c #FFA196",
"&. c #FFA29E",
"*. c #FFB5AB",
"=. c #FFB7B0",
"-. c #FFBAB2",
";. c #A6CB8E",
":. c #AACB8E",
">. c #A9CD93",
",. c #B3D29F",
"<. c #CFCBA2",
"1. c #D4CDAC",
"2. c #D7CBA9",
"3. c #CADFBC",
"4. c #E0CCB2",
"5. c #CDE1BF",
"6. c #8BA5DE",
"7. c #82BCD2",
"8. c #81BFFF",
"9. c #B1D4C2",
"0. c #B1D6D0",
"q. c #87C2FF",
"w. c #8AC4FF",
"e. c #A7D3FF",
"r. c #A9D4FF",
"t. c #BDDDFF",
"y. c #FFC6C0",
"u. c #FFC9C3",
"i. c #FFDEDA",
"p. c #CFE5C4",
"a. c #CFE6CF",
"s. c #D9E2C7",
"d. c #D5E6C9",
"f. c #DBE3C9",
"g. c #D5E6CA",
"h. c #D4E6D3",
"j. c #DDEBD4",
"k. c #D5E9D8",
"l. c #E1EEDA",
"z. c #E0E5D0",
"x. c #F4E1D6",
"c. c #FCE4DE",
"v. c #F3E3D8",
"b. c #C0DFFF",
"n. c #D9EBF4",
"m. c #D7EBFF",
"M. c #DBEDFF",
"N. c #D5EAF0",
"B. c #FFE4E2",
"V. c #FFE8E6",
"C. c #FFECEB",
"Z. c #FFE6EB",
"A. c #E6F3FF",
"S. c #E9F6FF",
"D. c #FFF7F6",
"F. c #F6FAF3",
"G. c #FFFFFF",
/* pixels */
"$ $ $ $ $ # # 4 X #.Z.p.w w 3.G.G.G.G.G.G.G.G.G.G.3.i @ # $ $ $ ",
"$ $ $ $ $ $ # 1 v K 1.,.f C g.G.G.G.G.G.G.G.G.G.G.j.C 7 : $ $ $ ",
"$ $ $ $ $ $ $ ; 1 e y f ,.j.F.G.G.G.G.G.G.G.G.G.G.G.j.>.7 # # $ ",
"$ $ $ $ $ $ $ $ # & 6 C j.G.G.D.B.i.i.x.d.d.i.i.s.f.c.1.t # # $ ",
"$ $ $ $ $ $ $ # @ 8 ;.j.F.G.G.V.*.+.+.R N N $.L B B $.K e # # # ",
"$ $ $ $ $ $ $ # # d g.G.G.G.G.B.*.o.Y   , 1     2 , X X 4 # # # ",
"$ $ $ $ $ $ $ # # d d.G.G.G.G.D.V.y.O.  , 1     2 , . X 4 # # $ ",
"$ $ $ $ $ $ $ # $ 7 :.l.F.G.G.G.G.C.*.L N B L $.B B $.K e # # $ ",
"$ $ # $ $ $ $ $ # : 8 Z j.G.G.G.G.G.V.x.s.f.x.x.f.f.B.1.t # # $ ",
"$ $ $ $ $ $ $ $ $ $ # w 9.A.G.G.G.G.G.G.G.G.G.G.G.G.j.>.w # # $ ",
"$ $ $ $ # $ $ $ $ # # 0 ) e.A.G.G.G.G.G.G.G.G.G.G.l.Z 7 & # $ $ ",
"$ $ $ $ $ $ $ $ $ # $ - Q  .t.M.M.m.m.m.M.M.M.n.h.;.8 @ $ $ $ $ ",
"$ $ $ $ $ $ # # $ $ # 0 Q |  .q.8.q.q.q.q.w.w.7.h 6 & # # $ $ $ ",
"$ $ $ $ $ $ # # # & * g ^ | 8.q.8.q.q.8.} ' ! W 9 2 4 1 ; $ $ $ ",
"$ $ $ $ $ # # # # * W ^ { 8.t.M.M.M.M.t. .~ a 9 M S D M 1 # $ $ ",
"$ $ $ # $ ; 1 4 3 s ( ] { w.n.G.G.G.G.A.r._ j b P T + D 4 # # $ ",
"$ $ $ $ # 1 v S A V ` [ { w.M.G.G.G.G.F.A.N.a.2.o.+ + D 4 # # $ ",
"$ $ $ # # 4 D Y U X.6.[ { 8.t.A.G.G.G.G.G.G.G.c.$.. A M 1 # # $ ",
"$ $ $ # # 5 D Y Y X.6.[ { |  .e.A.G.G.G.G.G.G.j.B 2 2 1 ; $ $ # ",
"$ $ $ $ # 1 v S S V 6.} { { ]  .t.M.M.M.M.N.h.;.8 $ < 1 ; $ # # ",
"$ $ $ # $ ; 1 4 3 s ( } { { { |  .q.q.w.w.7.j 6 % < m m 1 # # $ ",
"$ $ $ $ $ # # # # - Q { { | 8.8.| { { { ] ( j r 5 x I D 4 # # $ ",
"$ $ $ $ $ $ # # # - Q { { 8.t.t.8.{ { { ] ..0.<.H F U S 5 # # $ ",
"$ $ $ $ # # # : 7 k 7.q.q.e.A.A.w.{ { |  .e.S.B.%.Y Y D 5 # # $ ",
"$ $ $ $ $ # # 7 >.k.n.m.M.A.G.M.w.] ] q.t.S.G.B.%.O + A 4 # # # ",
"$ $ $ # # ; 1 n 4.C.G.G.G.G.G.n._ ~ ' q.t.A.G.B.%.+ + S 4 # # # ",
"$ $ $ % $ 1 m P @.-.C.G.G.G.G.h.k g / |  .r.S.B.%.+ + S 5 # # $ ",
"$ $ $ # # 1 m G O O.u.v.g.p.p.:.8 = E ! Q ) 9.<.K A S v 1 # # $ ",
"$ $ $ $ $ ; 1 z F T +.R B i p 7 : & * 0 0 q u t e 4 5 1 ; $ $ $ ",
"$ $ $ $ $ # # < M F O o l > $ # $ $ $ $ $ # # # # $ % # $ $ $ $ ",
"$ $ $ $ $ $ # & < z F O o v < # $ $ $ $ $ # # # # # # # $ $ $ $ ",
"$ $ $ $ $ $ $ # @ 5 A + T X 4 # # $ $ $ $ $ $ $ $ $ $ $ $ $ $ $ "
};
