/* XPM */
static char *d50b755052084fa8a076b9e4b75a55daRHCFfRtShSpVYTsj[] = {
/* columns rows colors chars-per-pixel */
"32 32 156 2 ",
"   c #CE7E4E",
".  c #D37F53",
"X  c #DD7E59",
"o  c #FF7C6C",
"O  c #F57F68",
"+  c #FF7E72",
"@  c #348600",
"#  c #388700",
"$  c #35880B",
"%  c #3D8B0A",
"&  c #3B8D2B",
"*  c #3A8B24",
"=  c #438605",
"-  c #418D0C",
";  c #5D810F",
":  c #57840F",
">  c #5C8514",
",  c #618112",
"<  c #6A8517",
"1  c #6A851B",
"2  c #67881C",
"3  c #589A25",
"4  c #5A9C2C",
"5  c #559D2B",
"6  c #49943B",
"7  c #489336",
"8  c #5D9E3B",
"9  c #5A9C36",
"0  c #658D22",
"q  c #6B8D26",
"w  c #659A2C",
"e  c #6A9D37",
"r  c #659D34",
"t  c #67A33C",
"y  c #68A43D",
"u  c #67A335",
"i  c #688E49",
"p  c #679054",
"a  c #6AA540",
"s  c #61A35C",
"d  c #519C6E",
"f  c #479669",
"g  c #64A56A",
"h  c #6FAB68",
"j  c #8C812C",
"k  c #918230",
"l  c #A9833E",
"z  c #8F9C4B",
"x  c #AC8441",
"c  c #B28653",
"v  c #89A24E",
"b  c #8BA351",
"n  c #91A553",
"m  c #B48D7F",
"M  c #8EBC6D",
"N  c #8FBD72",
"B  c #CF8154",
"V  c #D38154",
"C  c #D58258",
"Z  c #D9825A",
"A  c #DF8865",
"S  c #CE976C",
"D  c #D09A6D",
"F  c #CE9B70",
"G  c #D69C76",
"H  c #E58160",
"J  c #FF8174",
"K  c #DCA17F",
"L  c #4D9D8D",
"P  c #4D9D94",
"I  c #5F9FA1",
"U  c #5AA4A5",
"Y  c #72B2BF",
"T  c #58A7D0",
"R  c #5AA8D2",
"E  c #63A9CE",
"W  c #75B4C4",
"Q  c #63ACD0",
"!  c #76B6D3",
"~  c #7BA4D9",
"^  c #5EADFF",
"/  c #5FB0FF",
"(  c #61AFFF",
")  c #60ADF2",
"_  c #63B0FF",
"`  c #6AB4FF",
"'  c #7CBBF1",
"]  c #7DBDFF",
"[  c #7DC0FF",
"{  c #E38E8E",
"}  c #FB9585",
"|  c #FC9A8F",
" . c #FF9388",
".. c #E99196",
"X. c #FE9D94",
"o. c #DFA383",
"O. c #FFA196",
"+. c #D8A3AD",
"@. c #FFB5AB",
"#. c #FFB7B0",
"$. c #FFBAB3",
"%. c #A9CB8E",
"&. c #A7CA8C",
"*. c #A9CD93",
"=. c #A7CC91",
"-. c #ABCDA0",
";. c #B0D2BF",
":. c #CFCBA5",
">. c #CECDA9",
",. c #D4CDAD",
"<. c #DFCCB2",
"1. c #CDE1BF",
"2. c #81BBCF",
"3. c #A8B3DD",
"4. c #80BEFF",
"5. c #85B9F6",
"6. c #85AAE5",
"7. c #B4D4C4",
"8. c #B4D6D1",
"9. c #84C1FF",
"0. c #8AC4FF",
"q. c #9BCDFF",
"w. c #A9D4FF",
"e. c #A4D1FF",
"r. c #BCDDFF",
"t. c #B8DAF3",
"y. c #BCE0FF",
"u. c #FFC6C0",
"i. c #E6D3DD",
"p. c #FFDEDA",
"a. c #CFE2C2",
"s. c #D2E4C4",
"d. c #D9E2C7",
"f. c #D4E6CA",
"g. c #DBE3CA",
"h. c #DEEBD3",
"j. c #DFEED8",
"k. c #E4E7CD",
"l. c #E1EEDA",
"z. c #F4E1D6",
"x. c #FCE4DD",
"c. c #F5E2D8",
"v. c #D8D4E5",
"b. c #D7E9EF",
"n. c #C5E2FF",
"m. c #DCEDFF",
"M. c #FFE5E2",
"N. c #FFE9E6",
"B. c #FFEDED",
"V. c #E5F3FF",
"C. c #EAF6FF",
"Z. c #FFF7F6",
"A. c #F7FBF4",
"S. c #F8FBF5",
"D. c #F7FBFF",
"F. c #FFFFFF",
/* pixels */
"# # # # # @ @ 1 Z Z < @ @ @ @ @ @ @ @ @ @ @ @ @ @ @ @ # # # # # ",
"# # # # # @ @ > x c i & $ - 4 y y t t t t t t y y 4 - @ @ # # # ",
"# # # # # @ @ = > i I P & 3 &.s.a.1.1.1.1.1.1.a.a.%.4 @ @ # # # ",
"# # # # # # # @ @ & P U s M h.F.F.F.F.F.F.F.F.F.F.l.N 4 - @ @ # ",
"# # # # # # # @ @ $ & s -.h.S.F.F.F.F.F.F.F.F.F.F.F.l.*.4 @ @ # ",
"# # # # # # # @ @ - 3 M h.F.F.Z.M.p.x.z.d.d.z.z.d.g.x.,.e @ @ # ",
"# # # # # # # @ @ 4 %.h.S.F.F.M.@.| X.K b b K K b b o.G q @ @ # ",
"# # # # # # # @ @ a f.F.F.F.F.N.@. .J   ; ,     , ,   . 1 @ @ # ",
"# # # # # # # @ @ a f.F.F.F.F.Z.N.u. .  ; ,     , ,   . 1 @ @ # ",
"# # # # # # # @ @ 4 =.h.A.F.F.F.F.N.#.G v b K K b b o.G q @ @ # ",
"# # # # # # # @ @ - 4 M h.F.F.F.F.Z.N.z.d.d.z.z.d.g.x.,.e @ @ # ",
"# # # # # # # # # @ @ 9 ;.m.m.V.D.F.F.F.F.F.F.F.F.F.l.*.4 @ @ # ",
"# # # # # # # # # @ @ 7 Y 9.9.e.V.F.F.F.F.F.F.F.F.l.N 4 - @ @ # ",
"# # # # # # # # # $ & d ! 9.9.q.n.m.m.m.m.b.f.s.f.=.4 @ @ # # # ",
"# # # # # # # # @ & P ! t.m.m.n.q.0.0.0.0.2.h u y 4 - @ @ # # # ",
"# # # # # # # @ @ 6 W w.V.F.F.m.0.^ ^ ( ( T f * @ @ @ @ @ # # # ",
"# # # # # # # @ @ 8 7.C.D.F.F.m.0.^ ^ ( ( ) R L & @ @ @ @ # # # ",
"# # # # # @ @ % 5 M h.F.F.D.V.r.4.( ( _ _ _ _ E p < 1 > = @ @ # ",
"# # # # # @ @ 4 *.j.A.F.F.V.w.] ` _ _ _ _ _ / ~ m V V x > @ @ # ",
"# # # @ @ = > z <.B.Z.D.V.r.] ^ ( _ _ _ _ ` [ 3...+ J C 1 @ @ # ",
"# # # @ @ > l A } $.N.V.w.] ` ( ( _ _ ( ( 9.y.i.X.+ + C 1 @ @ # ",
"# # # @ @ 1 V + o | i.y.] ^ ( _ ( ( ( ( ( 0.V.x.K . V x > @ @ # ",
"# # # @ @ 1 V o o { 3.[ ` ( ( _ ( ( ( ^ ( 0.V.k.n < < > = @ @ # ",
"# # # @ @ 0 F O.O.+.6.^ _ _ ( ` 4.0.0.' Q W 7.*.4 @ @ @ @ # # # ",
"# # # @ @ r >.M.M.v.5.^ ( ( ^ ] r.m.m.8.g 6 8 4 - @ @ @ @ # # # ",
"# @ @ = > z <.B.F.V.w.' Q Q ' w.V.F.F.s.y @ @ @ @ # # # # # # # ",
"# @ @ > l A } $.B.F.C.8.g g 8.V.D.F.F.s.y @ @ @ @ # # # # # # # ",
"# @ @ 1 C o X S :.f.f.%.3 w :.M.M.c.g.=.4 @ @ # # # # # # # # # ",
"# @ @ 1 Z H k 0 r y a 4 % 2 D O.O.K b 5 - @ @ # # # # # # # # # ",
"# @ @ > x x > @ @ @ @ @ @ 1 B + + X j : = @ @ # # # # # # # # # ",
"# @ @ = > > = @ @ @ @ @ @ 1 B + + O Z l > @ @ # # # # # # # # # ",
"# # # @ @ @ @ # # # # @ @ 1 B J J J J C 1 @ @ # # # # # # # # # "
};
