/* XPM */
static char *NES___Bomberman___General_Sprites__3_1701752714[] = {
/* columns rows colors chars-per-pixel */
"32 32 117 2 ",
"   c #5D7F0D",
".  c #CB7D4B",
"X  c #FF7C6F",
"o  c #FF7F73",
"O  c #2F8200",
"+  c #348600",
"@  c #388700",
"#  c #3D8A03",
"$  c #3A8F36",
"%  c #3C8F39",
"&  c #438605",
"*  c #418D0C",
"=  c #5B840E",
"-  c #5C8513",
";  c #658311",
":  c #688416",
">  c #69851B",
",  c #569924",
"<  c #599A23",
"1  c #5A9C2C",
"2  c #408F3B",
"3  c #489335",
"4  c #4A963D",
"5  c #5F9F3D",
"6  c #688D22",
"7  c #679C31",
"8  c #689D34",
"9  c #5EA03E",
"0  c #64A236",
"q  c #66A53E",
"w  c #68A43D",
"e  c #719552",
"r  c #69A640",
"t  c #459568",
"y  c #65A66A",
"u  c #6EAA69",
"i  c #71AC6B",
"p  c #A9833E",
"a  c #8E9B4B",
"s  c #AA8440",
"d  c #8AA24E",
"f  c #89A350",
"g  c #8DBB6D",
"h  c #91BC6F",
"j  c #8FBC70",
"k  c #CF8153",
"l  c #D28154",
"z  c #D58258",
"x  c #CF9A6F",
"c  c #D19A6F",
"v  c #D39D7E",
"b  c #D89E7A",
"n  c #E08967",
"m  c #FF8175",
"M  c #FF8078",
"N  c #D9A17D",
"B  c #53A5BF",
"V  c #55A4C0",
"C  c #57A6CE",
"Z  c #63ACCF",
"A  c #75B5C1",
"S  c #63ADD1",
"D  c #5DABEF",
"F  c #5FAEFF",
"G  c #7CBBEF",
"H  c #61AFFF",
"J  c #64B0FF",
"K  c #6DB5FF",
"L  c #7CBCF1",
"P  c #F99887",
"I  c #FF9E96",
"U  c #FFA197",
"Y  c #FFA198",
"T  c #FFB9B3",
"R  c #A6C98C",
"E  c #A8CA8E",
"W  c #AACC91",
"Q  c #CFCBA7",
"!  c #D2CCA7",
"~  c #DCCBAF",
"^  c #CDE1BF",
"/  c #D2E5BF",
"(  c #82B5C8",
")  c #81BCD0",
"_  c #80BEFF",
"`  c #B3D5C3",
"'  c #B5D6CD",
"]  c #B4D6D0",
"[  c #B4D8D3",
"{  c #81C0FF",
"}  c #8BC4FF",
"|  c #ABD6FF",
" . c #BDDDFF",
".. c #BDE0FF",
"X. c #DAD4D6",
"o. c #CFE5C5",
"O. c #D2E5C6",
"+. c #D9E2C7",
"@. c #DFE4C9",
"#. c #D3E6D2",
"$. c #DDECD5",
"%. c #E2EDD6",
"&. c #F3E1D6",
"*. c #FEE2DD",
"=. c #C0DFFF",
"-. c #D7EBF2",
";. c #D9EBF2",
":. c #DCEDFF",
">. c #DFF2FF",
",. c #FFE4E3",
"<. c #FFEBED",
"1. c #E1F1FF",
"2. c #EBF7FF",
"3. c #EAF8FF",
"4. c #F5FBF5",
"5. c #FCFDF6",
"6. c #FFFFFF",
/* pixels */
"@ @ @ @ @ @ @ + O 8 o.6.6.6.6.6.6.6.6.6.6.^ 0 O + @ @ @ @ @ @ @ ",
"@ @ @ @ @ @ @ * , g #.6.6.6.6.6.6.6.6.6.6.#.g 1 * + + @ @ @ @ @ ",
"@ @ @ @ + + + 1 W $.4.6.6.6.6.6.6.6.6.6.6.4.$.W 1 + + @ @ @ @ @ ",
"@ @ @ @ @ + + r O.6.<.&.+.+.&.*.*.&.+.+.&.<.6.O.r + + @ @ @ @ @ ",
"@ @ @ @ @ + O r o.<.T b a f b I I N d a b T <.o.r O @ @ @ @ @ @ ",
"@ @ @ @ @ + + r o.,.I .   - . o o . -   . I ,.o.r O @ @ @ @ @ @ ",
"@ @ @ @ @ + + r o.,.I .   - . o X . -   . I ,.o.r @ O @ @ @ @ @ ",
"@ @ @ @ @ @ O r o.<.T b d f b I I N d d b T <.o.r O + @ @ @ @ @ ",
"@ @ @ @ @ @ O w O.6.<.&.+.+.&.*.*.&.+.+.&.<.6.O.r @ + @ @ @ @ @ ",
"@ @ @ @ @ @ O 7 W %.4.6.6.6.6.6.6.6.6.6.6.4.$.W 7 O + @ @ @ @ @ ",
"@ @ @ @ @ @ @ * 1 j %.6.6.6.6.6.6.6.6.6.6.$.j 1 * + + @ @ @ @ @ ",
"@ @ @ @ @ @ @ O O , R #.-.:.:.:.:.:.:.;.#.R , O + + + @ @ @ @ @ ",
"@ @ @ @ @ @ @ @ O # < i ) } } } _ } } ) u , # + O + + # @ @ @ @ ",
"@ @ @ @ @ @ @ * 1 8 3 t C H H H H H H Z y 0 0 8 6 > 6 - & @ @ @ ",
"@ @ @ @ @ O O 1 W ` A C D H H H H H F G ' / O.Q x . . s - @ + @ ",
"@ @ @ @ @ * 1 h %.1.} H H J J J H H H _ =.2.6.<.Y o o z > + @ @ ",
"@ @ @ + @ 1 E %.5.>.} F J J J J H H J K _ | 2.,.I o o z > + + + ",
"@ @ @ + + q O.6.6.:.} F J J J J J J J H H L ] ! b . l s - + + # ",
"@ @ @ + O q o.6.6.:.} J F J J J J J J H H S y 8 6 > > - * + + @ ",
"@ @ @ # = a ~ *.@.] L F J J J J J J H H H V 2 + + + + + @ @ @ @ ",
"@ @ + - s n P N d y Z J J J J J J J H H H V % O + @ @ @ @ @ @ @ ",
"@ + + > z m m k ; $ B J J J J J J K _ } } A 4 + @ @ @ @ @ @ @ @ ",
"+ + + > z M m k ; $ B J F F J J H _ =.:.1.` 8 + + @ @ @ @ @ @ @ ",
"# + + - p z z p = 4 A } } { K J H } :.6.6.O.r + + @ @ @ @ @ @ @ ",
"+ + @ * - > > - # 5 ` >.>...{ F H } :.6.6.O.q + + @ @ @ @ @ @ @ ",
"@ @ @ + + + + + + 0 ! ,.*.X.( V V ) -.6.6.o.q O + @ @ @ @ @ @ @ ",
"@ @ @ @ + + + + + 6 x U U v e $ $ u #.6.6.o.q + + @ @ @ @ @ @ @ ",
"@ @ @ @ @ # + + + > k m m l : O O 8 Q ,.,.Q 8 + @ @ @ @ @ @ @ @ ",
"@ @ @ @ @ @ @ @ + > l m m k > + O 6 x Y U x 6 + + @ @ @ @ @ @ @ ",
"@ @ @ @ @ @ @ @ @ - s z k s - + + > k o X k > O + @ @ @ @ @ @ @ ",
"@ @ @ @ @ @ @ + + * - > > - # + + > k m m k > + + @ @ @ @ @ @ @ ",
"@ @ @ @ @ @ @ @ + + + + + + + + + > k m m k > + + @ @ @ @ @ @ @ "
};
