/* XPM */
static char *_c2b0ba313d04f5c8a9cbd44927635aeJVPwSHYQDAvD80Cb[] = {
/* columns rows colors chars-per-pixel */
"32 32 119 2 ",
"   c #CD7E4E",
".  c #FF7F73",
"X  c #2F8200",
"o  c #348600",
"O  c #388700",
"+  c #3D8A03",
"@  c #3B8F39",
"#  c #438605",
"$  c #418D0C",
"%  c #5B840E",
"&  c #5C8614",
"*  c #638111",
"=  c #688416",
"-  c #69851B",
";  c #569925",
":  c #599A23",
">  c #5A9C2C",
",  c #479335",
"<  c #489335",
"1  c #46953A",
"2  c #4A953C",
"3  c #579E36",
"4  c #5E9F3C",
"5  c #688D22",
"6  c #679C31",
"7  c #699D34",
"8  c #5EA03E",
"9  c #63A137",
"0  c #66A53E",
"q  c #69A43F",
"w  c #719552",
"e  c #459568",
"r  c #66A76D",
"t  c #71AB6A",
"y  c #A9833E",
"u  c #8E9B4B",
"i  c #AA8440",
"p  c #8AA24E",
"a  c #81B66A",
"s  c #8EBB6E",
"d  c #91BC6F",
"f  c #CF8153",
"g  c #D28154",
"h  c #D58258",
"j  c #CF9A6F",
"k  c #D19A6F",
"l  c #D39D7E",
"z  c #E08967",
"x  c #FF8175",
"c  c #FF8078",
"v  c #DAA07D",
"b  c #72B4BF",
"n  c #53A3C0",
"m  c #57A6CE",
"M  c #74B4C1",
"N  c #62ACD1",
"B  c #5DABEF",
"V  c #5DAEFF",
"C  c #7EA5E4",
"Z  c #6BACF6",
"A  c #61AFFF",
"S  c #62B1FF",
"D  c #6AB4FF",
"F  c #7CBDF2",
"G  c #7EBEFF",
"H  c #BC92AA",
"J  c #DE888B",
"K  c #F99887",
"L  c #FF9E8B",
"P  c #FFA197",
"I  c #FFA198",
"U  c #E8A8AA",
"Y  c #A8CA8E",
"T  c #AACC91",
"R  c #AFD4BE",
"E  c #CFCBA7",
"W  c #D2CCA7",
"Q  c #DCCBAF",
"!  c #CDE1BF",
"~  c #82B5C8",
"^  c #8BA2D9",
"/  c #82BCD0",
"(  c #80A6E3",
")  c #82BFFF",
"_  c #A9BBE4",
"`  c #B3D5C2",
"'  c #BFDCCF",
"]  c #B5D8D3",
"[  c #BEDBD0",
"{  c #83C0FF",
"}  c #89C4FF",
"|  c #9BCBF0",
" . c #97CAFF",
".. c #99CBFF",
"X. c #A1CFFF",
"o. c #A4D1FF",
"O. c #BBDEFF",
"+. c #DAD4D6",
"@. c #CFE2C1",
"#. c #D2E4C5",
"$. c #DEE4C9",
"%. c #D5E6D2",
"&. c #D3E8D3",
"*. c #DDEBD4",
"=. c #E2EDD6",
"-. c #FDE2D9",
";. c #C3E0FF",
":. c #D9EBF2",
">. c #D7EAFF",
",. c #DBEDFF",
"<. c #DEF1FF",
"1. c #FEE5E4",
"2. c #E7EBF6",
"3. c #E0EFFF",
"4. c #E2F1FF",
"5. c #F5F9F2",
"6. c #F9FCF6",
"7. c #F6FBFF",
"8. c white",
/* pixels */
"O O O O O O O o X 9 ! 8.8.8.8.8.8.8.8.8.8.! 9 X o O O O O O O O ",
"O O O O O o o $ > s *.8.8.7.4.>.>.4.7.8.8.*.s > $ o o O O O O O ",
"O O O O O o o > Y *.5.8.8.4.o.{ { o.4.8.8.5.*.Y > o o O O O O O ",
"O O O O O o o q #.8.8.8.8.4.o.) ) ..;.4.7.8.8.#.q o o O O O O O ",
"O O O O O o o q #.8.8.8.8.7.4.>.>.;. .X.3.8.8.#.q o o O O O O O ",
"O O O O O o o q @.8.8.8.8.8.8.8.8.4.X.X.3.8.8.@.q o o O O O O O ",
"O O O O O o o q @.8.8.8.8.8.8.8.8.7.3.3.7.8.8.@.q o o O O O O O ",
"O O O O O o o q #.8.8.8.8.8.8.8.8.8.8.8.8.8.8.#.q o o O O O O O ",
"O O O O O o o q #.8.8.8.8.8.8.8.8.8.8.8.8.8.8.#.q o o O O O O O ",
"O O O O O o o > T *.6.8.8.8.8.8.8.8.8.8.8.6.*.T > o o O O O O O ",
"O O O O O o o $ > s *.8.8.8.8.8.8.8.8.8.8.*.s > $ o o O O O O O ",
"O O O o o o o o X ; Y %.:.,.,.,.,.,.,.:.%.Y ; X o O O O O O O O ",
"O O O o o o o o o + : t / } } } } } } / t : + o o O O O O O O O ",
"O o o # & - - 5 7 4 , e m A A A A A A m e < 4 > $ o o O O O O O ",
"O o o & i g g k W ` b m B A A A A A A B m M ` T > o o O O O O O ",
"O o o - h . . I 1.4.} A A S S S S S S A A } 4.=.d > $ o o O O O ",
"O o o - h . . I 1.4.} A A S S S S S S A A } ,.6.=.T > o o o O O ",
"O o o & i g g k W ] F V V Z ( ^ ^ ( Z V V } ,.8.8.#.0 o o O O O ",
"O o o # & - - 5 6 r N V V C H J J H C V V } ,.8.8.#.0 o o O O O ",
"O O O o o o o o o 2 M } } _ U L L U _ } } | [ $.-.Q u & # o o O ",
"O O O o o o o o o 4 ` 4.<.2.1.-.-.1.2.,.<.' a p v K z y & o o O ",
"O O O O O O O o o 8 ` ,.,.,.,.,.,.,.,.,.,.R 3 *   . x h - o o O ",
"O O O O O O O o o 2 M } } } } } } } } } } b 1 * g . c h - o o O ",
"O O O O O O O o o 2 M } } G D A A D G } } M 1 % y h h i & o o O ",
"O O O O O O O o o 4 ` ,.,.O.G V V G O.<.<.` 8 # & - - & # o o O ",
"O O O O O O O o o q #.8.8.:./ n n ~ +.1.1.W 7 o o o o o o O O O ",
"O O O O O O O o o q #.8.8.&.t @ @ w l P P k 5 o o o o o o O O O ",
"O O O O O O O o o 7 E 1.1.E 6 X X = g . . g - o o O o O O O O O ",
"O O O O O O O o o 5 j I I j 5 o o - g . . g - o o O O O O O O O ",
"O O O O O O O o o - f . . f - o o & i g g i & o o O O O O O O O ",
"O O O O O O O o o - f . . f - o o # & - - & # o o O O O O O O O ",
"O O O O O O O o o - f x x f - o o o o o o o o O O O O O O O O O "
};
