/* XPM */
static char *NES___Bomberman___General_Sprites__4_1701752714[] = {
/* columns rows colors chars-per-pixel */
"32 32 120 2 ",
"   c #CD7E4E",
".  c #FF7C65",
"X  c #FF7F73",
"o  c #2F8200",
"O  c #348600",
"+  c #388700",
"@  c #3D8A03",
"#  c #3B8F39",
"$  c #438605",
"%  c #418D0C",
"&  c #5B840E",
"*  c #5C8614",
"=  c #638111",
"-  c #688416",
";  c #69851B",
":  c #569925",
">  c #599A23",
",  c #5A9C2C",
"<  c #479335",
"1  c #489335",
"2  c #46953A",
"3  c #4A953C",
"4  c #579E36",
"5  c #5E9F3C",
"6  c #688D22",
"7  c #679C31",
"8  c #699D34",
"9  c #5EA03E",
"0  c #63A137",
"q  c #66A53E",
"w  c #69A43F",
"e  c #719552",
"r  c #459568",
"t  c #66A76D",
"y  c #71AB6A",
"u  c #A9833E",
"i  c #8E9B4B",
"p  c #AA8440",
"a  c #8AA24E",
"s  c #81B66A",
"d  c #8EBB6E",
"f  c #91BC6F",
"g  c #CF8153",
"h  c #D28154",
"j  c #D58258",
"k  c #CF9A6F",
"l  c #D19A6F",
"z  c #D39D7E",
"x  c #E08967",
"c  c #FF8175",
"v  c #FF8078",
"b  c #DAA07D",
"n  c #72B4BF",
"m  c #53A3C0",
"M  c #57A6CE",
"N  c #74B4C1",
"B  c #62ACD1",
"V  c #5DABEF",
"C  c #5DAEFF",
"Z  c #5FB0FF",
"A  c #6DADF7",
"S  c #61AFFF",
"D  c #6AB4FF",
"F  c #7CBDF2",
"G  c #7EBEFF",
"H  c #BD95AD",
"J  c #DC8A8E",
"K  c #F99887",
"L  c #FF9F8E",
"P  c #FFA197",
"I  c #FFA198",
"U  c #E5A9AD",
"Y  c #A8CA8E",
"T  c #AACC91",
"R  c #AFD4BE",
"E  c #CFCBA7",
"W  c #D2CCA7",
"Q  c #DCCBAF",
"!  c #CDE1BF",
"~  c #82B5C8",
"^  c #87A2DB",
"/  c #8AA4DB",
"(  c #82BCD0",
")  c #80A7E5",
"_  c #82BFFF",
"`  c #A8BCE5",
"'  c #B3D5C2",
"]  c #BFDCCF",
"[  c #B5D8D3",
"{  c #BEDBD0",
"}  c #83C0FF",
"|  c #89C4FF",
" . c #9BCBF0",
".. c #97CAFF",
"X. c #99CBFF",
"o. c #A1CFFF",
"O. c #A4D1FF",
"+. c #BBDEFF",
"@. c #DAD4D6",
"#. c #CFE2C1",
"$. c #D2E4C5",
"%. c #DEE4C9",
"&. c #D5E6D2",
"*. c #D3E8D3",
"=. c #DDEBD4",
"-. c #E2EDD6",
";. c #FDE3DB",
":. c #C3E0FF",
">. c #D9EBF2",
",. c #D7EAFF",
"<. c #DBEDFF",
"1. c #DEF1FF",
"2. c #FEE5E4",
"3. c #E6EBF7",
"4. c #E0EFFF",
"5. c #E2F1FF",
"6. c #F5F9F2",
"7. c #F9FCF6",
"8. c #F6FBFF",
"9. c white",
/* pixels */
"+ + + + + + + O o 8 #.9.9.9.9.9.9.9.9.9.9.! 0 O O O + + + + + + ",
"+ + + + + + + % : d &.9.9.8.5.,.,.4.8.9.9.&.d : % O + + + + + + ",
"+ + + + O O O , T =.6.9.9.4.O.} } O.5.9.9.6.=.Y , O O + + + + + ",
"+ + + + + O O w $.9.9.9.9.5.O._ _ X.:.5.8.9.9.$.w O O + + + + + ",
"+ + + + + O O e #.9.9.9.9.8.4.,.<.:...o.4.9.9.$.e O O + + + + + ",
"+ + + + + O O 0 #.9.9.9.9.9.9.9.9.5.o.o.4.9.9.#.0 O O + + + + + ",
"+ + + + + O O q #.9.9.9.9.9.9.9.9.8.4.4.8.9.9.#.q O O + + + + + ",
"+ + + + + O O w $.9.9.9.9.9.9.9.9.9.9.9.9.9.9.$.w O O + + + + + ",
"+ + + + + O O w $.9.9.9.9.9.9.9.9.9.9.9.9.9.9.$.w O O + + + + + ",
"+ + + + + O O 4 T -.6.9.9.9.9.9.9.9.9.9.9.7.=.T , O O + + + + + ",
"+ + + + + O O @ , d -.9.9.9.9.9.9.9.9.9.9.=.d : @ O + + + + + + ",
"+ + + + + O @ O o : Y &.>.<.<.<.<.<.<.>.&.Y : o O O O O + + + + ",
"+ + + + + + + O o @ > y ( | | | | | | ( y > @ O o O O O + + + + ",
"+ + + + + + + % , 8 1 r M S S S C C S M r 1 5 8 6 6 6 * $ + + + ",
"+ + + + + O O , T ' N M V S S S C S S V M n ' W l   j p * + O + ",
"+ + + + + @ , d -.4.| S S A ) / / ) A S S | 4.2.I X X   6 O O + ",
"+ + + O O 9 T =.7.3.| S C F H J J H ) S S | 5.2.I X c j ; O O + ",
"+ + + O O q $.9.9.<._ C C / J . . J ^ Z C F [ W l h h p * O + + ",
"+ + + O o q #.9.9.<.| C C ^ J . . J ^ Z S B t 7 6 ; ; * % + + + ",
"+ + + @ & i Q ;.%.]  ._ _ ` U L L U ` | | N 2 O O O O O + + + + ",
"+ + O * u x K b a s ] <.1.3.2.;.;.2.3.1.5.' 5 o O O O O + + + + ",
"+ O O ; j v X   = 4 R 5.<.<.,.<.1.,.<.<.4.' 5 O O + + + + + + + ",
"+ O O ; j c X g = 2 n | | | | | | | | | | N 3 + + + + + + + + + ",
"+ O O * u j j u & 2 N | | G D Z Z D G } | N 3 + + + + + + + + + ",
"+ + + % * ; ; * @ 9 ' 1.1.+.G Z C _ +.<.<.' 5 O O + + + + + + + ",
"+ + + + O O O o O 0 W 2.;.@.~ m m ( >.9.9.$.w O O + + + + + + + ",
"+ + + + O O O O O 6 l I I z e # # y *.9.9.#.q O O + + + + + + + ",
"+ + + + + + + O O ; g c c h - o o 7 E 2.2.E 0 O O + + + + + + + ",
"+ + + + + + + O O ; j v c g ; o O 6 k I P k 6 O O + + + + + + + ",
"+ + + + + + + + + * p g g u * O o ; g X X g - o + + + + + + + + ",
"+ + + + + + + + + @ * ; ; * $ O O ; g X c g ; O O + + + + + + + ",
"+ + + + + + + + + O O O O O O O O ; g c c g ; O O + + + + + + + "
};
