/* XPM */
static char *NES___Bomberman___General_Sprites__1_1701752714[] = {
/* columns rows colors chars-per-pixel */
"32 32 157 2 ",
"   c #CE7E4E",
".  c #CF7F52",
"X  c #D47F54",
"o  c #DC7F59",
"O  c #F97E69",
"+  c #FF7F72",
"@  c #2F8400",
"#  c #358600",
"$  c #388700",
"%  c #3A8D06",
"&  c #3A8A0A",
"*  c #3E8E2C",
"=  c #3C8C25",
"-  c #3D8F39",
";  c #438706",
":  c #418D0C",
">  c #56840E",
",  c #5D810F",
"<  c #578612",
"1  c #5C8614",
"2  c #618212",
"3  c #698516",
"4  c #69851B",
"5  c #63891B",
"6  c #559B25",
"7  c #5A9D2C",
"8  c #589C28",
"9  c #5F8A3B",
"0  c #41903D",
"q  c #49943D",
"w  c #5D9E35",
"e  c #6A8D24",
"r  c #629A2B",
"t  c #6A9D36",
"y  c #659A30",
"u  c #5EA03E",
"i  c #62A136",
"p  c #64A53C",
"a  c #3F9467",
"s  c #679053",
"d  c #6AA540",
"f  c #7DB25A",
"g  c #48976C",
"h  c #6EAC6B",
"j  c #66A867",
"k  c #71AD6C",
"l  c #8D812C",
"z  c #8E8430",
"x  c #918431",
"c  c #A7833E",
"v  c #A9833F",
"b  c #8D9A42",
"n  c #919C4D",
"m  c #AC8441",
"M  c #A98348",
"N  c #89A24E",
"B  c #8BA352",
"V  c #B58E7F",
"C  c #8CBA6C",
"Z  c #8FBD72",
"A  c #CF8254",
"S  c #D38155",
"D  c #D58258",
"F  c #DE815C",
"G  c #E2805D",
"H  c #CF9A6D",
"J  c #D19A6F",
"K  c #D59B74",
"L  c #D89E7A",
"P  c #E18965",
"I  c #E38160",
"U  c #FA806C",
"Y  c #FF8175",
"T  c #FF847A",
"R  c #DBA07F",
"E  c #4F9D8E",
"W  c #539D92",
"Q  c #55A4C1",
"!  c #58A7CC",
"~  c #56A6D1",
"^  c #5BA8D3",
"/  c #59A7D2",
"(  c #66A7CB",
")  c #73B4C2",
"_  c #7CBACE",
"`  c #7EA5D8",
"'  c #5DABF2",
"]  c #5EAEFF",
"[  c #5EB0FF",
"{  c #61AEFF",
"}  c #62B1FF",
"|  c #6BB4FF",
" . c #7EBDFF",
".. c #78BBF1",
"X. c #DF8C96",
"o. c #FC9586",
"O. c #FF958B",
"+. c #FF9B8F",
"@. c #F99885",
"#. c #FF9D92",
"$. c #DEA382",
"%. c #FFA196",
"&. c #FFA29E",
"*. c #FFB5AB",
"=. c #FFB7B0",
"-. c #FFBAB2",
";. c #A6CB8E",
":. c #AACB8E",
">. c #A9CD93",
",. c #B3D29F",
"<. c #CFCBA2",
"1. c #D4CDAC",
"2. c #D7CBA9",
"3. c #CADFBC",
"4. c #E0CCB2",
"5. c #CDE1BF",
"6. c #8BA5DE",
"7. c #82BCD2",
"8. c #81BFFF",
"9. c #B1D4C2",
"0. c #B1D6D0",
"q. c #87C2FF",
"w. c #8AC4FF",
"e. c #A7D3FF",
"r. c #A9D4FF",
"t. c #BDDDFF",
"y. c #FFC6C0",
"u. c #FFC9C3",
"i. c #FFDEDA",
"p. c #CFE5C4",
"a. c #CFE6CF",
"s. c #D9E2C7",
"d. c #D5E6C9",
"f. c #DBE3C9",
"g. c #D5E6CA",
"h. c #D4E6D3",
"j. c #DDEBD4",
"k. c #D5E9D8",
"l. c #E1EEDA",
"z. c #E0E5D0",
"x. c #F4E1D6",
"c. c #FCE4DE",
"v. c #F3E3D8",
"b. c #C0DFFF",
"n. c #D9EBF4",
"m. c #D7EBFF",
"M. c #DBEDFF",
"N. c #D5EAF0",
"B. c #FFE4E2",
"V. c #FFE8E6",
"C. c #FFECEB",
"Z. c #FFE6EB",
"A. c #E6F3FF",
"S. c #E9F6FF",
"D. c #FFF7F6",
"F. c #F6FAF3",
"G. c #FFFFFF",
/* pixels */
"$ $ $ # @ t p.G.G.G.G.G.G.G.G.G.G.5.w i p.Z.&.X 4 # # $ $ $ $ $ ",
"$ $ $ & 7 C k.G.G.G.G.G.G.G.G.G.G.g.C f ,.1.K m , # # $ $ $ $ $ ",
"$ $ # 7 >.j.F.G.G.G.G.G.G.G.G.G.G.F.g.,.f y e 1 ; $ $ $ $ $ $ $ ",
"$ $ # t 1.B.f.f.x.i.s.s.x.c.i.B.D.G.G.l.C 6 $ @ $ $ $ $ $ $ $ $ ",
"$ # # e K $.B B L $.B N L #.+.*.B.G.G.F.j.;.7 # # $ $ $ $ $ $ $ ",
"$ # $ 4 S . 2 2   . 2 ,   + O.*.V.G.G.G.G.g.d # # $ $ $ $ $ $ $ ",
"$ # $ 4 X   1 2 .   , <   o.4.Z.D.G.G.G.G.g.d # # # $ # $ $ $ $ ",
"$ # $ e K $.B N L $.B n L =.C.G.G.G.G.F.j.>.7 $ # $ $ $ $ $ $ $ ",
"$ # # t 1.V.f.f.x.x.f.s.i.V.F.G.G.G.G.f.C 7 & $ # $ $ $ $ $ $ $ ",
"$ $ # 7 >.k.G.G.G.G.G.G.G.G.G.G.G.G.A.9.w # # $ $ $ $ $ $ $ $ $ ",
"$ $ # & 7 Z j.G.G.G.G.G.G.G.G.G.G.A.e.) q # # $ $ $ $ $ $ $ $ $ ",
"$ $ $ # @ 8 ;.k.n.M.M.M.M.m.m.m.M.t. .Q 0 # $ $ $ $ $ $ $ $ $ $ ",
"$ $ $ # # & 6 h 7.w.q.q.q.q.q.q.8. .| Q 0 $ $ $ $ $ $ $ $ $ $ $ ",
"$ $ # ; 1 3 4 9 W ~ ' }  .q.q.q.q. .| ^ g * & # # # $ $ $ $ $ $ ",
"$ # # 1 m o A M 9 a ~  .t.M.M.m.M.b.8.{ ^ E * @ # # $ $ $ $ $ $ ",
"$ # # e X + + P b h _ e.A.G.G.G.G.n.w.{ [ ( s 4 4 1 ; $ $ $ $ $ ",
"$ # # 4 D + + @.2.g.n.M.G.G.G.G.G.M.w.} [ ` V S S v < # # $ $ $ ",
"$ # $ < M A A $.B.G.G.G.G.G.G.G.A.t.8.{ [ 6.X.Y Y S 4 # # # $ $ ",
"$ $ $ ; < 5 2 B f.G.G.G.G.G.G.A.e. .| } [ 6.X.+ Y S 4 # # $ $ $ ",
"$ $ $ ; 1 > $ 8 ;.h.N.M.M.m.M.t. .] { } } ` V S S v 5 $ # $ $ $ ",
"$ # # < m m < % 6 h _ q.w.q.w.8.{ { { { | ( s 3 4 1 ; $ # $ $ $ ",
"$ # $ e D I z 5 r j ^ { { { { | 8.8.| { { Q - # # # $ $ $ $ $ $ ",
"$ # # 4 D U F H <.0...] { { { 8.b.b.8.{ { Q - # # # # $ $ $ $ $ ",
"$ # # 4 S + O %.B.S.r.8.| { { w.M.S.r.q.q.7.k 7 : # $ $ $ $ $ $ ",
"$ # # 4 A Y U %.B.G.A.b.q.] ] q.M.G.A.m.M.n.k.>.7 @ $ $ $ $ $ $ ",
"$ # # 4 A Y Y %.B.G.A.t.8.' ! 7.N.G.G.G.G.G.C.4.n 1 ; % # # $ $ ",
"$ # @ 4 D + O %.B.S.e.8.| ^ g k h.G.G.G.G.C.-.@.P m 1 # # $ $ $ ",
"$ # # 1 m S S K 2.9.) Q Q E = 8 :.p.p.s.v.u.O.U G m 1 # # $ $ $ ",
"$ $ $ ; < 4 4 e t u q 0 0 * & : 7 p p B R O.T G z 1 ; $ $ $ $ $ ",
"$ $ $ $ $ # # @ # # # # $ $ $ # $ $ > l D U F c < # # $ $ $ $ $ ",
"$ $ $ # # # # # # # # # # $ $ # # 1 v o U F z < % $ # $ $ $ $ $ ",
"$ $ $ $ $ $ # # $ $ $ $ $ $ $ # # 4 D + Y A 5 @ # $ $ $ $ $ $ $ "
};
